<svg width="371" height="371" viewBox="0 0 371 371" fill="none" xmlns="http://www.w3.org/2000/svg">
<path d="M0 371V185.5V0H371V371H0Z" fill="white"/>
<g filter="url(#filter0_d_2_121)">
<path d="M226 33.64C229.57 32.26 234.53 30.21 237 29.09C239.47 27.96 243.07 27.04 245 27.03C246.93 27.02 250.19 27.46 252.25 28.01C254.63 28.64 258.16 31.1 261.92 34.75C267.13 39.81 267.92 41.1 268.54 45.5C268.93 48.33 268.78 52.02 268.19 54C267.51 56.26 262.84 62.12 255.05 70.5C248.4 77.65 242.96 83.95 242.95 84.5C242.94 85.05 243.95 86.85 245.19 88.5C246.43 90.15 248.16 93.53 249.03 96C250.48 100.09 250.89 100.47 253.56 100.2C255.18 100.04 258.75 99.66 261.5 99.37C265.22 98.97 267.91 99.39 272 101C275.02 102.19 279.93 105.03 282.9 107.33C285.86 109.62 290.35 112.63 292.86 114C295.38 115.38 298.48 118.08 299.75 120C301.44 122.56 302.05 124.91 302.03 128.75C302 133.8 302.18 134.14 306.62 137.75C309.16 139.81 311.86 142.74 312.62 144.25C313.52 146.04 314 150.5 314 157C314 162.5 313.52 168.24 312.94 169.75C312.35 171.26 310.58 173.85 309 175.5C306.2 178.42 306.11 178.87 304.5 207.75L308.5 208.39C311.35 208.85 313.65 210.19 316.5 213.08C319.96 216.58 320.55 217.82 320.85 222.31C321.08 225.74 320.29 230.88 318.52 237.5C317.04 243 315.37 248.4 314.79 249.5C314.21 250.6 313.01 252.29 312.12 253.26C310.6 254.92 311.03 255.55 318.88 263.26C324.01 268.31 328.03 273.24 329.24 276C330.67 279.23 331.05 281.63 330.62 284.5C330.21 287.15 328.91 289.59 326.75 291.74C324.96 293.52 317.65 297.92 310.5 301.51C300.52 306.52 296.51 308.03 293.25 308.02C290.55 308.01 287.82 307.2 285.75 305.8C283.96 304.59 279.8 301.2 276.5 298.28C273.2 295.35 269.94 292.96 269.25 292.97C268.56 292.99 256.64 298.92 242.75 306.16C228.86 313.4 208.72 323.88 198 329.46C187.28 335.03 176.93 340.14 175 340.81C173.07 341.48 168.24 342.03 164.25 342.02C157.81 342 156.19 341.57 149.75 338.2C145.76 336.12 141.07 333.53 136.13 330.5L128.31 338.14C122.76 343.57 119.49 346 117 346.52C115.08 346.92 112.15 346.8 110.5 346.25C108.85 345.71 103.45 342.75 98.5 339.68C93.55 336.62 88.4 333.29 87.06 332.3C85.72 331.31 84 328.93 83.23 327C82.43 324.99 82.08 322.01 82.41 320C82.73 318.07 84.79 314.14 86.99 311.25C89.2 308.36 90.89 305.82 90.75 305.6C90.61 305.38 86.67 302.88 82 300.05C77.33 297.21 72.2 293.68 70.62 292.2C69.04 290.71 66.91 287.7 65.89 285.5C64.63 282.78 63.73 277.33 63.07 268.5C62.54 261.35 61.56 241.78 59.68 194.5L56.42 190.5C54.62 188.29 52.62 184.27 51.96 181.5C51.3 178.75 49.46 173.8 47.86 170.5C45.89 166.42 44.97 162.98 44.98 159.75C44.99 157.14 45.74 153.54 46.65 151.75C47.55 149.96 56.89 139.5 67.4 128.5C77.9 117.49 90.55 104.2 95.5 98.95C100.45 93.7 106.3 88.05 108.5 86.39C110.7 84.73 116.78 81.52 122 79.26C127.22 77 135.32 73.49 140 71.45C144.68 69.42 152.66 65.78 157.75 63.37C162.84 60.97 167.45 59 168 59C168.55 59 175.53 56.08 183.5 52.5C191.47 48.92 198.22 46 198.5 46C198.78 46 203.61 43.78 209.25 41.07C214.89 38.36 222.43 35.02 226 33.64Z" fill="#FCFDFC"/>
<path d="M103.47 323.75C102.08 323.06 100.96 321.94 100.97 321.25C100.99 320.56 101.34 320.01 101.75 320.03C102.16 320.05 103.27 320.61 104.21 321.28C105.15 321.95 105.94 323.06 105.96 323.75C105.99 324.75 105.49 324.75 103.47 323.75Z" fill="#698C6E"/>
<path d="M95.83 322.17C95.74 321.71 96.04 321.03 96.5 320.67C96.96 320.3 98.16 320 99.17 320C100.17 320 101 320.67 101 321.5C101 322.32 101.9 323.23 103 323.5C104.17 323.79 105 324.83 105 326C105 327.93 104.83 327.91 100.5 325.5C98.03 324.12 95.92 322.62 95.83 322.17Z" fill="#CFE5E5"/>
<path d="M110.99 323.25C107.68 321.19 105.28 319.16 105.65 318.75C106.03 318.34 106.48 318 106.67 318C106.85 318 109.47 319.57 112.5 321.5C115.53 323.43 118 325.45 118 326C118 326.55 117.78 327 117.5 327C117.22 327 114.29 325.31 110.99 323.25Z" fill="#698C6E"/>
<path d="M113 319.06C108.94 316.64 107.06 315.01 107.99 314.72C108.81 314.46 110.61 314.95 111.99 315.81C113.37 316.67 115.92 318.23 117.65 319.28C119.38 320.34 120.85 321.6 120.9 322.1C120.96 322.59 120.66 322.98 120.25 322.96C119.84 322.95 116.57 321.19 113 319.06Z" fill="#698C6E"/>
<path d="M121.5 316C118.51 314.29 117.86 313.51 118.92 312.91C119.77 312.43 121.56 312.81 123.42 313.88C125.11 314.85 127.53 316.07 128.78 316.57C131 317.47 130.91 317.65 120.5 328.18L118.28 325.84C117.06 324.55 116.27 323.16 116.53 322.75C116.79 322.34 117.9 322.22 119 322.5C120.1 322.77 121 322.55 121 322C121 321.45 118.86 319.83 116.25 318.41C113.083 316.677 111.833 315.477 112.5 314.81C113.167 314.143 115.083 314.677 118.25 316.41C120.86 317.83 123.56 318.84 124.25 318.64C124.94 318.45 123.7 317.26 121.5 316Z" fill="#CFE5E5"/>
<path d="M116.5 315.5C112.92 313.57 110 311.55 110 311C110 310.45 110.22 310 110.5 310C110.78 310 113.99 311.69 117.64 313.75C121.3 315.81 124.45 317.84 124.64 318.25C124.84 318.66 124.55 319 124 319C123.45 319 120.08 317.43 116.5 315.5Z" fill="#698C6E"/>
<path d="M122.5 313.5C120.03 312.13 118 310.55 118 310C118 309.45 118.22 309 118.5 309C118.78 309 121.03 310.12 123.5 311.5C125.97 312.87 128 314.45 128 315C128 315.55 127.78 316 127.5 316C127.22 316 124.97 314.88 122.5 313.5Z" fill="#698C6E"/>
<path d="M97.78 319.28C97.66 318.89 99.78 316.42 102.49 313.78C105.2 311.15 107.66 309.02 107.96 309.04C108.26 309.06 109.51 310.19 110.75 311.54C111.99 312.89 113 314.23 113 314.5C113 314.78 111.65 314.78 110 314.5C108.35 314.23 107 314.34 107 314.75C107 315.16 109.25 316.74 112 318.25C114.75 319.76 117 321.45 117 322C117 322.55 116.44 323 115.75 323C115.06 323.01 112.81 321.88 110.75 320.5C108.69 319.13 106.44 318.28 105.75 318.62C104.99 318.99 106.96 320.76 110.75 323.12C114.19 325.25 117.68 327 118.5 327C119.33 327 119.99 327.34 119.98 327.75C119.97 328.16 118.95 329.52 117.73 330.78C116.5 332.03 114.94 333.04 114.25 333.03C113.56 333.01 111.17 331.76 108.92 330.25C105.63 328.03 104.96 327.07 105.42 325.25C105.8 323.78 105.39 322.49 104.25 321.53C103.29 320.72 101.49 320.05 100.25 320.03C99.01 320.01 97.9 319.68 97.78 319.28Z" fill="#FCFDFC"/>
<path d="M115.48 310.75C114.64 308.96 113.97 307.39 113.98 307.25C113.99 307.11 114.45 307 115 307C115.55 307 116.67 307.23 117.5 307.5C118.32 307.77 118.78 308.45 118.5 309C118.22 309.55 118.45 310.68 119 311.5C119.73 312.59 119.59 313.14 118.5 313.5C117.52 313.83 116.47 312.86 115.48 310.75Z" fill="#95C7B8"/>
<path d="M115.83 306.17C115.74 305.71 116.04 305.03 116.5 304.67C116.96 304.3 119.17 304.01 121.42 304.03C124.06 304.05 127.36 305.11 130.75 307.03C133.64 308.66 135.99 310.56 135.98 311.25C135.97 311.94 134.95 313.52 133.73 314.78C132.5 316.03 130.94 317.04 130.25 317.03C129.56 317.01 128.79 316.44 128.53 315.75C128.28 315.06 125.35 312.81 122.03 310.75C118.72 308.69 115.92 306.62 115.83 306.17Z" fill="#FCFDFC"/>
<path d="M92.87 322.13C92.79 321.05 95.98 316.84 100.38 312.19C105.02 307.29 108.62 304.29 109.52 304.56C110.55 304.87 108.74 307.41 103.5 313C99.38 317.4 96.11 321.43 96.25 321.95C96.39 322.48 100.33 325.19 105 327.98C109.68 330.76 113.95 333.05 114.5 333.05C115.05 333.05 116.63 331.94 118 330.58C119.45 329.15 121.04 328.4 121.79 328.8C122.72 329.31 122.16 330.41 119.79 332.77C117.98 334.57 115.83 336.04 115 336.05C114.18 336.05 108.89 333.34 103.25 330.03C96.38 325.99 92.96 323.38 92.87 322.13Z" fill="#698C6E"/>
<path d="M108 309L110.61 305.5C112.04 303.57 114.06 302 115.11 302C116.15 302 117.21 302.34 117.47 302.75C117.73 303.16 117.05 304.51 115.97 305.75C114.36 307.59 114.23 308.28 115.25 309.52C115.94 310.36 116.28 311.26 116 311.53C115.72 311.79 113.81 311.33 108 309Z" fill="#CFE5E5"/>
<path d="M289.28 268.67C289.15 268.58 289.56 267.07 290.19 265.32C291.3 262.22 291.35 262.19 292.48 264.32C293.45 266.17 293.31 266.68 291.56 267.67C290.43 268.31 289.4 268.76 289.28 268.67Z" fill="#CFE5E5"/>
<path d="M278.5 251C278.23 250.45 278.25 249.55 278.55 249C278.85 248.45 281.33 248 284.05 248C288.33 248 289 248.27 289 250C289 251.73 288.33 252 284 252C281.25 252 278.77 251.55 278.5 251Z" fill="#7CCF95"/>
<path d="M106.75 246.03C109.48 246.04 111.16 245.36 112.92 243.53C114.39 241.99 116.45 241 118.17 241C119.73 241 120.78 241.45 120.5 242C120.22 242.55 119.1 243 118 243C116.9 243 115.55 243.9 115 245C114.45 246.1 114 247.45 114 248C114 248.62 115.97 248.75 119.25 248.33C123.14 247.84 124.31 247.97 123.75 248.83C123.26 249.6 123.76 250 125.2 250C126.57 250 127.04 250.35 126.45 250.93C125.93 251.44 121.67 252.08 117 252.35C112.33 252.63 107.21 253 105.63 253.18C103.69 253.39 102.39 252.91 101.63 251.7C100.72 250.25 100.85 249.7 102.25 248.95C103.21 248.43 103.78 247.55 103.5 247C103.21 246.42 104.58 246.01 106.75 246.03Z" fill="#698C6E"/>
<path d="M119.5 243C121.99 243 123.3 242.42 124.03 241C124.59 239.9 125.5 239 126.04 239C126.58 239 126.9 240.91 126.5 247.5L120.5 248.27C117.2 248.7 114.28 248.81 114 248.51C113.72 248.22 114.06 246.86 114.75 245.49C115.72 243.55 116.77 243 119.5 243Z" fill="#F0D564"/>
<path d="M274 233C273.45 233 273.03 231.76 273.07 230.25C273.12 228.12 273.29 227.91 273.82 229.32C274.19 230.33 274.95 231.03 275.5 230.9C276.05 230.76 276.64 231.51 276.81 232.57C276.99 233.63 276.64 234.95 276.05 235.5C275.3 236.19 274.97 235.95 274.98 234.75C274.99 233.79 274.55 233 274 233Z" fill="#698C6E"/>
<path d="M285.16 227.04C288.77 227.07 290.94 226.59 291.86 225.54C292.87 224.4 295.25 224 301.11 224C308.17 224 308.94 224.18 308.45 225.75C308.15 226.71 306.91 231.22 305.7 235.77C304.34 240.88 302.93 244.2 302 244.45C301.17 244.68 294.99 245.11 288.25 245.43C276.93 245.96 276.03 245.87 276.41 244.25C276.64 243.29 277.5 239.01 279.81 227L285.16 227.04Z" fill="#F0D564"/>
<path d="M99.5 224.5L105.5 223.92C108.8 223.6 114.54 223.26 125 223L124.55 226.25C124.3 228.04 123.82 231.3 123.49 233.5C123.16 235.7 122.69 238.29 122.45 239.25C122.14 240.46 121 241.01 118.75 241.02C116.7 241.03 114.57 241.92 113 243.43C110.98 245.36 108.96 245.97 94.5 247.32L95.26 242.91C95.68 240.48 96.81 235.35 99.5 224.5Z" fill="#F0D564"/>
<path d="M98.24 223.27C98.96 222.57 104.43 221.67 111 221.16C117.33 220.68 123.51 220.22 124.75 220.14C126.1 220.06 127.4 220.8 128 222C128.55 223.1 129 229.18 129 235.5C129 241.82 128.78 247.68 128.5 248.5C128.21 249.37 126.84 249.98 122.5 249.9L124.8 248.2C126.74 246.76 127.08 245.62 127.05 240.75C127.02 237.59 126.55 235 126 235C125.45 235 125 235.9 125 237C125 238.1 124.55 239.9 124 241C123.45 242.1 122.33 243 121.5 243C120.19 243 120.18 242.72 121.42 240.75C122.2 239.51 123.13 236.25 123.49 233.5C123.84 230.75 124.32 227.26 125 223L117.75 223.1C113.76 223.15 108.03 223.49 99.5 224.5L97.76 231.5C96.81 235.35 95.8 240.41 95 247H99.5C102.17 247 103.8 247.41 103.5 248C103.22 248.55 100.97 249 98.5 249C95.15 249 93.82 248.55 93.31 247.25C92.92 246.29 93.59 240.78 94.79 235C95.99 229.22 97.54 223.95 98.24 223.27Z" fill="#293A25"/>
<path d="M276.5 220.5L280.5 219.89C282.7 219.56 285.4 219.2 286.5 219.1C287.6 218.99 289.06 219.61 289.75 220.46C290.44 221.3 290.77 222.68 290.5 223.5C290.14 224.59 288.5 225 284.5 225C279.27 225 278.93 225.16 276.01 231.5L276.5 220.5Z" fill="#F0D564"/>
<path d="M302 220.5C302 219.68 301.44 218.79 300.75 218.54C300.06 218.29 301.44 218.18 303.82 218.29C307.21 218.46 308.48 219.04 309.73 221C311.08 223.13 311.14 224.35 310.16 229.25C309.28 233.62 308.64 234.88 307.5 234.5C306.17 234.06 306.17 233.47 307.49 229.25C308.31 226.64 308.98 224.39 308.99 224.25C309 224.11 308.1 224 307 224C305.9 224 305.23 223.55 305.5 223C305.77 222.45 305.1 222 304 222C302.89 222 302 221.33 302 220.5Z" fill="#698C6E"/>
<path d="M149 218.27C142.01 214.6 138.09 212.02 139 211.7C139.82 211.4 140.72 211.12 141 211.08C141.27 211.04 145.77 213.47 151 216.49C158.09 220.59 161.51 221.99 164.5 222.01C166.7 222.03 170.19 221.36 172.25 220.52C174.31 219.69 176.45 219 177 219C177.55 219 178.01 219.34 178.03 219.75C178.05 220.16 176.15 221.4 173.81 222.5C171.33 223.66 167.66 224.46 165.03 224.4C161.55 224.32 157.84 222.91 149 218.27Z" fill="#293A25"/>
<path d="M189 227.54C198.07 222.94 209.53 217.12 214.46 214.59C219.39 212.07 223.77 210 224.21 210C224.64 210 225.86 211.01 226.91 212.25C228.63 214.27 229.13 214.37 231.76 213.27C233.38 212.59 235.1 212.25 235.6 212.51C236.09 212.77 236.16 213.66 235.75 214.49C235.34 215.32 233.2 216.9 231 218C228.6 219.2 225 220 222 220C217.62 220 214.43 221.31 196.25 230.6C184.84 236.42 175.05 241.59 174.5 242.08C173.95 242.56 171.8 243.31 165.96 244.5V241C165.95 237.87 166.3 237.41 169.23 236.7C171.03 236.27 179.93 232.14 189 227.54Z" fill="#7CCF95"/>
<path d="M115.91 208.93C115.86 208.35 116.32 207 116.94 205.93C117.55 204.87 118.94 204 120.03 204C121.11 204 127.96 207.17 135.25 211.04C142.54 214.91 151.2 219.39 154.5 220.99C157.8 222.59 161.74 224.15 163.25 224.45C165.76 224.95 166 225.39 166 229.5C166 233.83 165.89 234 163 234C161.13 234 154.62 231.04 145.75 226.15C137.91 221.83 128.01 216.43 123.75 214.15C119.49 211.87 115.96 209.52 115.91 208.93Z" fill="#7CCF95"/>
<path d="M177.81 219.4C176.49 218.69 179.31 216.84 190.81 210.88C198.89 206.68 205.67 203.2 205.87 203.13C206.08 203.06 205.52 203.79 204.62 204.75C203.73 205.71 203.2 206.72 203.45 207C203.7 207.28 198.41 210.38 191.7 213.9C182.69 218.62 179.06 220.06 177.81 219.4Z" fill="#698C6E"/>
<path d="M191 214.12C200.62 209.21 210.53 204.06 213 202.67C215.47 201.28 217.91 200.12 218.41 200.07C218.9 200.03 219.46 201.01 219.64 202.25C219.82 203.49 219.99 205.4 220.01 206.5C220.03 208.11 215.25 210.96 195.27 221.23C181.65 228.23 169.49 233.96 168.25 233.98C166.25 234 166 233.51 166 229.5C166 225.14 166.12 224.97 169.75 224.03C171.81 223.49 181.37 219.03 191 214.12Z" fill="#9FF5B7"/>
<path d="M220.01 206.75C220.02 206.06 219.72 204.04 219.36 202.25C218.82 199.62 219.01 199 220.35 199C221.4 199 222.4 200.37 223.1 202.75C223.98 205.73 223.92 206.65 222.85 207.23C222.11 207.64 221.16 207.98 220.75 207.98C220.34 207.99 220.01 207.44 220.01 206.75Z" fill="#7CCF95"/>
<path d="M149.27 200.56C151.05 200.03 153.13 198.99 153.89 198.26C155.02 197.18 155.57 197.17 156.85 198.22C157.71 198.92 159.22 200.29 160.21 201.25C161.19 202.21 162.01 204.24 162.02 205.75C162.03 208.43 162 208.45 160.45 206.5C158.92 204.59 158.88 204.64 159.43 207.75C159.77 209.71 159.5 211.55 158.75 212.39C157.68 213.58 157.1 213.58 154.75 212.39C153.04 211.53 152.19 210.43 152.5 209.5C152.833 208.5 151.667 207.333 149 206C146.66 204.83 145.22 203.49 145.52 202.76C145.81 202.09 147.5 201.09 149.27 200.56Z" fill="#698C6E"/>
<path d="M97 200C95.9 199.45 95.02 198.31 95.04 197.47C95.08 196.11 95.4 196.11 98.08 197.5C99.73 198.35 101.06 199.49 101.04 200.03C101.02 200.56 100.55 201 100 201C99.45 201 98.1 200.55 97 200Z" fill="#95C7B8"/>
<path d="M90.75 204.72C86.73 202.42 86 201.54 86.01 198.99C86.03 196.23 86.2 196.09 88.03 197.23C89.13 197.92 90.02 198.94 90.02 199.49C90.01 200.05 94.62 202.81 100.25 205.63C105.89 208.45 112.97 211.91 116 213.32C119.03 214.73 126 218.31 131.5 221.27C137 224.23 143.52 227.81 146 229.22C148.47 230.63 152.75 232.97 155.5 234.42C158.25 235.86 161.29 237.04 162.25 237.02C163.59 237.01 164 237.82 164 240.5C164 243.81 163.85 243.96 161.25 243.36C159.74 243.01 155.12 240.94 151 238.76C146.87 236.59 141.02 233.29 138 231.44C134.97 229.59 131.71 228.06 130.75 228.04C129.68 228.02 129 227.22 129 226C129 224.9 128.55 223.1 128 222C127.07 220.13 126.4 220.05 118.02 220.75C109.07 221.5 109.04 221.49 109.52 219.25C109.78 218.01 109.44 216.27 108.75 215.39C108.06 214.5 106.15 213.16 104.5 212.41C102.85 211.65 100.15 210.23 98.5 209.24C96.85 208.26 93.36 206.22 90.75 204.72Z" fill="#698C6E"/>
<path d="M165.5 215.98C168.61 215.95 174.17 213.51 190.5 205C202.05 198.98 212.18 194.03 213 194.01C213.82 193.99 215.07 194.54 215.77 195.23C216.46 195.93 217.03 196.84 217.02 197.25C217.01 197.66 213.06 199.94 208.25 202.31C203.44 204.68 192.64 210.08 184.25 214.31C172.33 220.32 168.07 222 164.75 221.99C161.48 221.98 158.32 220.75 151 216.63C145.78 213.69 137.34 208.97 132.25 206.14C127.16 203.32 122.98 200.66 122.96 200.25C122.93 199.84 123.64 198.82 124.53 198C125.98 196.66 126.7 196.78 131.33 199.14C134.17 200.59 142.12 204.98 149 208.89C158.85 214.5 162.35 216 165.5 215.98Z" fill="#9FF5B7"/>
<path d="M89.91 199.2C89.89 198.49 90.65 196.46 91.62 194.7L93.38 191.5L94.55 195.5C95.24 197.87 96.61 199.91 97.89 200.5C99.09 201.05 100.05 202.29 100.03 203.25C100.01 204.21 99.78 205 99.5 205C99.22 205 96.97 203.99 94.48 202.75C92 201.51 89.94 199.92 89.91 199.2Z" fill="#CFE5E5"/>
<path d="M215.56 195.5C213.48 193.5 213.48 193.5 215.49 192.3C217.14 191.31 217.72 191.4 218.77 192.8C219.46 193.74 220.03 195.06 220.02 195.75C220.01 196.44 219.47 197.11 218.82 197.25C218.18 197.39 216.71 196.6 215.56 195.5Z" fill="#7CCF95"/>
<path d="M156.79 194.46C156.68 194.16 158.59 193.07 161.04 192.03C163.49 190.99 167.38 190.11 169.68 190.07C173.82 190 173.85 190.02 172.18 192.15C171.26 193.33 168.59 195.13 166.25 196.15C163.91 197.17 161.59 199.01 161.1 200.25C160.23 202.39 160.11 202.32 158.6 198.75C157.72 196.69 156.91 194.76 156.79 194.46Z" fill="#F0D564"/>
<path d="M75 233C73.9 209.35 73 189.78 73 189.5C73 189.22 73.34 189.02 73.75 189.03C74.16 189.05 77.09 190.63 80.25 192.53C85.2 195.52 86 196.42 86 199C86 201.42 86.72 202.41 89.75 204.14C91.81 205.31 95.08 207.19 97 208.32C98.92 209.44 102.08 211.2 104 212.23C105.92 213.25 108.08 214.64 108.79 215.3C109.51 215.96 110.07 217.29 110.04 218.25C110.02 219.21 109.1 220.45 108 221C106.9 221.55 104.54 221.98 102.75 221.96C100.96 221.93 98.94 222.49 98.26 223.21C97.58 223.92 96.03 229.22 94.82 235C93.6 240.78 92.92 246.29 93.31 247.25C93.77 248.417 95.0833 249 97.25 249C99.66 248.99 100.76 249.57 101.5 251.25C102.28 253 103.17 253.43 105.5 253.17C107.15 252.99 112.44 252.65 117.25 252.42C124.96 252.05 126.18 251.73 127.51 249.75C128.6 248.13 129.01 244.79 129.01 237.75C129 229.75 129.27 228 130.5 228C131.32 228 134.52 229.46 137.61 231.25C140.69 233.04 146.2 236.18 149.86 238.23C153.51 240.28 158.19 242.41 164 244V284C164 310 164.35 324 165 324C165.55 324 166 323.55 166 323C166 322.45 166.9 322 168 322C169.1 322 175.06 319.36 181.25 316.13C187.44 312.9 200.15 306.33 209.5 301.52C218.85 296.7 231.45 290.17 237.5 286.99C243.55 283.82 253 278.91 258.5 276.08C264 273.26 269.18 270.95 270 270.95C270.82 270.95 271.83 271.29 272.22 271.72C272.62 272.15 272.51 273.29 271.97 274.25C271.44 275.21 266.84 278.19 261.75 280.87C256.66 283.55 246.2 289.01 238.5 293C230.8 296.99 220.45 302.4 215.5 305.02C210.55 307.64 198.51 313.88 188.75 318.89C172.47 327.25 170.53 328 165.25 328.01C160.08 328.01 158.4 327.4 148.5 321.91C142.45 318.55 137.28 315.62 137 315.39C136.72 315.16 137.07 314.41 137.77 313.73C138.46 313.06 139.03 311.71 139.02 310.75C139.01 309.65 136.56 307.61 125.79 301.5L126.6 294C127.05 289.87 127.43 283.62 127.5 273.71L123.5 272.21C121.3 271.39 117.03 270.39 114 269.98C110.97 269.57 105.95 268.62 102.83 267.87C97.5 266.58 97.02 266.62 94.98 268.5C92.95 270.37 92.85 271.12 93.41 280.25C93.73 285.61 93.66 289.99 93.25 289.98C92.84 289.97 90.47 288.78 88 287.34C85.53 285.91 82.44 283.78 81.14 282.61C79.85 281.45 78.39 279.49 77.89 278.25C77.4 277.01 76.1 256.65 75 233Z" fill="#7CCF95"/>
<path d="M254.25 201.92C254.44 200.33 258.49 197.76 271.5 190.98C280.85 186.1 289.3 182.09 290.29 182.06C291.93 182 292.03 182.9 291.54 193.25C291.25 199.44 291.01 207.31 291 217L284.75 216.96C280.17 216.93 277.92 217.39 276.32 218.71C274.41 220.27 273.99 222.14 272.98 233.5C271.89 245.73 271.93 246.57 273.66 247.77C274.67 248.46 276.06 249.03 276.75 249.02C277.44 249.01 278.23 249.68 278.5 250.5C278.86 251.57 280.44 252 289 252V256C289 258.2 288.32 261.57 287.5 263.5C286.68 265.43 285.21 267.26 284.25 267.57C283.29 267.88 280.59 269.01 278.25 270.07C275.65 271.25 272.93 271.78 271.25 271.43C269.18 271.01 266.02 272.15 258.5 276.04C253 278.89 243.55 283.82 237.5 286.99C231.45 290.17 218.85 296.7 209.5 301.52C200.15 306.33 187.44 312.9 181.25 316.13C175.06 319.36 169.1 322 168 322C166.03 322 166 321.33 165.96 244.5L169.73 243.73C171.8 243.31 173.95 242.56 174.5 242.08C175.05 241.59 184.84 236.42 196.25 230.6C214.43 221.31 217.62 220 222 220C225 220 228.6 219.2 231 218C233.2 216.9 235.45 214.88 236 213.5C236.55 212.13 237.45 211 238 211C238.55 211 242.37 209.43 246.5 207.5C251.97 204.95 254.07 203.44 254.25 201.92Z" fill="#9FF5B7"/>
<path d="M199.82 253.33C199.68 249 200.07 247.22 201.47 245.83C202.47 244.82 204.24 243.99 205.4 243.98C206.55 243.97 208.07 244.54 208.77 245.23C209.46 245.93 210.03 248.64 210.02 251.25C210 254.81 209.4 256.69 207.61 258.75C205.45 261.24 204.98 261.38 202.61 260.25C200.29 259.14 199.98 258.37 199.82 253.33Z" fill="#293A25"/>
<path d="M230.72 250.02C233.2 250 234.92 248.99 238.22 245.58C240.57 243.14 242.84 241.12 243.25 241.08C243.66 241.03 244.02 241.79 244.03 242.75C244.05 243.71 243.15 245.74 242.03 247.25C240.92 248.76 238.2 250.9 236 252C233.8 253.1 230.99 254.02 229.75 254.04C228.51 254.07 226.38 253.2 225 252.11C222.98 250.52 222.74 249.89 223.75 248.82C224.76 247.76 225.24 247.74 226.25 248.77C226.94 249.46 228.95 250.03 230.72 250.02Z" fill="#293A25"/>
<path d="M255 228.5C255 224.33 255.48 222.52 257 221C258.1 219.9 259.68 219 260.5 219C261.32 219 262.68 219.67 263.5 220.5C264.33 221.33 265 223.78 265 226C265 228.2 264.55 230.9 264 232C263.45 233.1 262.1 234.45 261 235C259.667 235.667 258.333 235.667 257 235C255.36 234.18 255 233 255 228.5Z" fill="#293A25"/>
<path d="M146.5 187.57C146.5 186.51 147.83 184.88 149.5 183.9C151.15 182.94 152.64 182.11 152.82 182.07C153 182.03 152.55 182.7 151.82 183.54C151.09 184.39 150.95 185.06 151.5 185.03C152.05 184.99 151.64 185.54 150.6 186.23C149.29 187.11 148.98 187.94 149.6 188.91C150.29 189.99 150.03 190.23 148.5 189.9C147.35 189.65 146.5 188.66 146.5 187.57Z" fill="#698C6E"/>
<path d="M148.81 187.51C148.71 187.25 151.74 185.47 155.56 183.56C159.38 181.66 162.72 180.06 163 180.02C163.28 179.98 164.06 181.08 164.75 182.47C165.44 183.86 166.01 185.56 166.03 186.25C166.04 186.94 163.75 188.62 160.94 190C157.12 191.86 155.65 193.21 155.16 195.27C154.8 196.8 154.28 198.05 154 198.06C153.72 198.07 152.49 195.81 151.25 193.04C150.01 190.27 148.91 187.78 148.81 187.51Z" fill="#95C7B8"/>
<path d="M116.83 183.67C116.74 182.38 117.04 181.03 117.5 180.67C117.96 180.3 119.16 180 120.17 180C121.32 180 122.18 180.92 122.5 182.5C122.88 184.4 123.48 184.88 125 184.5C126.18 184.2 127.6 184.72 128.47 185.75C129.28 186.71 129.95 187.05 129.97 186.5C129.99 185.95 130.65 185.5 131.44 185.5C132.29 185.5 133.14 186.93 133.52 189C133.93 191.2 133.76 192.59 133.08 192.75C132.49 192.89 132 193.68 132 194.5C132 195.66 131.26 195.85 128.75 195.36C126.88 194.99 125.82 195.09 126.25 195.61C126.66 196.1 126.1 197.06 125 197.75C123.9 198.44 123 199.45 123 200C123 200.55 126.83 203.03 131.5 205.5C136.18 207.98 140 210.45 140 211C140 211.55 139.32 212 138.5 212C137.68 212 133.63 210.2 129.5 208C125.38 205.8 121.1 204 120 204C118.667 204 118.167 203.5 118.5 202.5C118.78 201.68 118.55 201 118 201C117.45 201 118.23 198.64 119.74 195.75C121.25 192.86 122.6 190.16 122.74 189.75C122.88 189.34 121.65 188.33 120 187.5C118.07 186.54 116.94 185.16 116.83 183.67Z" fill="#698C6E"/>
<path d="M252.24 194.3C252.38 194.19 261.27 189.59 272 184.08C282.73 178.57 291.61 174.05 291.75 174.03C291.89 174.01 292 175.8 292 178C292 180.89 291.58 182 290.5 182C289.68 182 281.13 186.05 254 200L252.99 197.25C252.43 195.74 252.09 194.41 252.24 194.3Z" fill="#7CCF95"/>
<path d="M127.81 179.52C127.71 179.25 129.85 177.93 132.56 176.57C135.28 175.21 137.72 174.08 138 174.06C138.28 174.04 139.51 174.25 140.75 174.51C142.51 174.89 142.81 175.38 142.12 176.75C141.64 177.71 139.37 179.4 137.09 180.5C134.81 181.6 132.95 183.06 132.97 183.75C132.99 184.44 132.55 185.23 132 185.5C131.45 185.78 130.32 184.65 129.5 183C128.68 181.35 127.92 179.78 127.81 179.52Z" fill="#F0D564"/>
<path d="M164.5 176.73L166.91 174.83C168.24 173.79 169.81 173.1 170.41 173.3C171.01 173.5 171.95 174.94 172.5 176.5C173.25 178.61 173.18 179.42 172.25 179.67C171.25 179.93 171.25 180.4 172.25 182C172.94 183.11 174.06 184.01 174.75 184C175.44 184 176 184.67 176 185.5C176 186.32 175.32 187.22 174.5 187.5C173.68 187.77 171.43 188 169.5 188C166.65 188 165.93 187.58 165.63 185.75C165.42 184.51 164.87 182.6 164.4 181.5C163.77 180.03 163.87 179.7 164.77 180.25C165.45 180.66 166.79 180.6 167.75 180.12C169.32 179.33 169.24 179.11 164.5 176.73Z" fill="#698C6E"/>
<path d="M144.56 178C144.84 177.17 148.09 175.07 151.78 173.33C155.48 171.59 158.84 170.12 159.25 170.08C159.66 170.04 160.17 170.34 160.38 170.75C160.59 171.16 161.04 172.96 161.38 174.75C161.99 177.97 161.93 178.03 154.5 181.5C150.37 183.42 146.74 185.56 146.42 186.25C146.11 186.94 146.78 189.41 147.92 191.75C149.07 194.09 150.01 196.34 150.03 196.75C150.05 197.16 148.36 198.33 146.28 199.33C144.2 200.34 141.6 201.01 140.5 200.82C139.19 200.59 138.05 199.1 137.2 196.49C136.48 194.29 135.58 190.63 134.5 184.17L139.28 181.84C141.91 180.55 144.28 178.82 144.56 178Z" fill="#F0D564"/>
<path d="M97.55 184.5C99.52 181.2 102.07 176.59 103.21 174.25C104.35 171.91 105.56 170.01 105.89 170.02C106.23 170.03 109.54 171.72 113.25 173.77C119.64 177.3 119.92 177.61 118.53 179.5C117.72 180.6 117.05 182.51 117.03 183.75C117.01 185.27 117.98 186.49 120 187.5C121.65 188.32 123.01 189.11 123.02 189.25C123.03 189.39 120.51 194.22 117.43 200C114.35 205.78 111.65 210.72 111.43 211C111.21 211.28 108.52 210.15 105.44 208.5C100.11 205.63 99.88 205.36 100.43 202.25C100.94 199.33 100.64 198.8 97.5 197C95.14 195.65 94 194.27 93.99 192.75C93.98 191.51 95.58 187.8 97.55 184.5Z" fill="#FCFDFC"/>
<path d="M104.25 198.24C100.27 196.18 97.01 194.16 97 193.75C97 193.34 97.45 193 98 193C98.55 193 102.15 194.57 106 196.5C109.85 198.43 113 200.45 113 201C113 201.55 112.66 201.99 112.25 201.99C111.84 201.98 108.24 200.29 104.25 198.24Z" fill="#698C6E"/>
<path d="M103.25 192.15C100.91 190.97 99.25 189.55 99.55 189C99.85 188.45 100.3 188 100.55 188C100.8 188 104.16 189.69 108.03 191.75C111.9 193.81 115.05 196.06 115.03 196.75C115.01 197.44 114.78 198 114.5 198C114.22 198 112.54 197.17 110.75 196.15C108.96 195.14 105.59 193.34 103.25 192.15Z" fill="#95C7B8"/>
<path d="M108.96 189.25C105.08 187.19 101.93 185.16 101.96 184.75C101.98 184.34 102.45 184 103 184C103.55 184 106.99 185.69 110.64 187.75C114.3 189.81 117.45 191.84 117.64 192.25C117.84 192.66 117.55 193 117 193C116.45 193 112.83 191.31 108.96 189.25Z" fill="#698C6E"/>
<path d="M107.48 183.25C105.54 182.29 103.97 181.16 103.98 180.75C103.99 180.34 104.45 180 105 180C105.55 180 107.58 180.79 109.52 181.75C111.46 182.71 113.03 183.84 113.02 184.25C113.01 184.66 112.55 185 112 185C111.45 185 109.42 184.21 107.48 183.25Z" fill="#698C6E"/>
<path d="M77.83 173.42C77.74 172.27 78.04 171.03 78.5 170.67C78.96 170.3 79.72 170 80.2 170C80.68 170 84.32 171.92 88.28 174.28C93.42 177.32 95.57 179.2 95.75 180.78C95.89 182 95.44 183.24 94.75 183.54C94.06 183.83 90.01 182.14 85.75 179.79C80.2 176.72 77.95 174.91 77.83 173.42Z" fill="#9FF5B7"/>
<path d="M115.76 173.28C115.36 172.85 116.48 171.74 118.26 170.81C120.04 169.88 122.17 169.11 123 169.09C123.91 169.08 123.33 170.03 121.5 171.53C119.85 172.88 118.95 174.01 119.5 174.03C120.05 174.04 119.71 174.5 118.75 175.03C117.62 175.66 116.38 175.66 115.25 175.03C113.89 174.28 113.84 174.06 115 174.06C115.82 174.06 116.17 173.71 115.76 173.28Z" fill="#698C6E"/>
<path d="M68.75 170.39C68.34 170.18 68.25 169.55 68.55 169C68.85 168.45 70.65 168 72.55 168C74.45 168 76.63 168.27 77.41 168.6C78.34 169 78.63 170.11 78.27 171.85C77.97 173.31 77.67 174.63 77.61 174.79C77.55 174.95 75.7 174.11 73.5 172.93C71.3 171.75 69.16 170.6 68.75 170.39Z" fill="#95C7B8"/>
<path d="M163 171C163 169.9 164.19 167.91 165.63 166.58C167.99 164.41 168.35 164.33 169.06 165.83C169.5 166.75 169.9 168.17 169.96 169C170.01 169.82 168.92 171.06 167.53 171.75C166.14 172.44 164.55 173 164 173C163.45 173 163 172.1 163 171Z" fill="#CFE5E5"/>
<path d="M268.78 171.83C268.28 170.89 270.19 169.41 275.28 166.8C279.25 164.76 282.54 163.08 282.58 163.05C282.63 163.02 282.4 163.96 282.08 165.14C281.71 166.5 279.31 168.36 275.5 170.22C270.8 172.52 269.34 172.87 268.78 171.83Z" fill="#698C6E"/>
<path d="M94.53 169.75C93.14 166.59 92.22 163.57 92.49 163.04C92.76 162.52 93.66 162.29 94.49 162.54C95.32 162.79 95.78 163.45 95.5 164C95.23 164.55 95.97 166.91 97.16 169.25C98.35 171.59 99.92 174.06 100.66 174.75C101.4 175.44 102 176.34 101.99 176.75C101.99 177.16 101.09 178.85 100 180.5C98.91 182.15 98.01 182.94 98.01 182.25C98 181.56 97.55 181.22 97 181.5C96.45 181.77 95.78 181.1 95.5 180C95.23 178.9 95.45 178 96 178C96.55 178 97.01 177.44 97.03 176.75C97.04 176.06 95.92 172.91 94.53 169.75Z" fill="#698C6E"/>
<path d="M94.85 164.45C94.77 164.15 96.23 163.27 98.1 162.49C99.97 161.71 101.94 161.06 102.48 161.04C103.02 161.02 104.06 162.46 104.79 164.25C105.94 167.07 105.91 167.6 104.56 168.25C103.7 168.66 102.55 170.12 102 171.5C101.45 172.87 100.66 174.01 100.25 174.02C99.84 174.03 98.49 172 97.25 169.52C96.01 167.03 94.93 164.75 94.85 164.45Z" fill="#FCFDFC"/>
<path d="M137.25 164.43C136.56 163.09 136.25 161.55 136.55 161C136.85 160.45 137.3 160 137.55 160C137.8 160 138.68 161.35 139.5 163C140.66 165.32 140.72 166.1 139.75 166.43C139.06 166.66 137.94 165.76 137.25 164.43Z" fill="#698C6E"/>
<path d="M273.5 171.03C286.7 164.31 297.93 158.4 298.45 157.91C298.97 157.41 299.76 157 300.2 157C300.64 157 301 158.46 301.01 160.25C301.01 162.04 300.33 164.45 299.5 165.61C298.66 166.76 287.64 172.95 274.99 179.36C262.35 185.76 251.78 191 251.5 191C251.23 191 250.29 189.54 249.42 187.75C248.56 185.96 248.22 184.22 248.67 183.87C249.13 183.52 260.3 177.74 273.5 171.03Z" fill="#9FF5B7"/>
<path d="M71.49 164.77C73.13 162.97 75.8 160.04 77.43 158.25C79.06 156.46 80.97 155 81.69 155C82.5 155 83.01 156.25 83.02 158.25C83.04 160.98 82.48 161.78 79.52 163.25C77.58 164.21 76 165.68 76 166.5C76 167.56 74.91 168.01 68.5 168.04L71.49 164.77Z" fill="#698C6E"/>
<path d="M85.99 157.75C85.99 157.06 87.9 155.77 90.24 154.87C92.58 153.97 94.8 153.19 95.16 153.12C95.53 153.05 95.64 154.12 95.41 155.5C95.05 157.71 95.29 157.94 97.5 157.5C99.28 157.14 100 157.43 100 158.5C100 159.32 98.99 160.21 97.75 160.46C96.51 160.71 94.65 161.5 93.61 162.21C91.78 163.46 91.81 163.69 94.39 169.5C95.85 172.8 97.04 175.61 97.03 175.75C97.01 175.89 96.1 175.55 95 175C93.9 174.45 91.43 170.62 89.5 166.5C87.58 162.37 86 158.44 85.99 157.75Z" fill="#FCFDFC"/>
<path d="M101.52 149.75C101.1 148.34 101.72 147.94 104.75 147.67C106.81 147.49 108.95 147.28 109.5 147.2C110.05 147.13 108.36 148.85 101 155L105.84 162.25C108.5 166.24 111.99 170.37 113.59 171.43C115.21 172.5 115.94 173.5 115.25 173.68C114.56 173.85 112.09 173.04 109.75 171.87C107.41 170.7 105.41 170.13 105.3 170.62C105.18 171.1 104.14 172.63 100.86 176.5L101.47 173.5C101.81 171.85 102.97 169.71 104.04 168.75C105.93 167.06 105.94 166.89 104.25 164C103.12 162.06 101.97 161.2 101 161.57C100.17 161.88 98.15 162.37 96.5 162.64C93.61 163.13 93.57 163.09 95.5 161.55C96.6 160.68 98.06 159.97 98.75 159.98C99.44 159.99 100 159.33 100 158.5C100 157.43 99.28 157.14 97.5 157.5C96.13 157.78 95 157.55 95 157C95 156.45 95.56 156.01 96.25 156.03C96.94 156.04 98.52 155.03 99.77 153.78C101.09 152.44 101.82 150.77 101.52 149.75Z" fill="#293A25"/>
<path d="M105.25 151.75C107.59 149.96 110.4 147.96 111.5 147.31C112.6 146.65 113.72 146.08 114 146.03C114.28 145.99 115.63 147.1 117 148.5C118.38 149.9 119.84 151.04 120.25 151.03C120.66 151.01 122.27 150.05 123.83 148.89C125.38 147.73 126.89 146.94 127.19 147.14C127.49 147.34 128.92 149.41 130.37 151.75C131.81 154.09 134.69 159.16 136.75 163.01C138.81 166.87 140.28 170.16 140 170.33C139.72 170.5 136.46 172.07 132.75 173.82C127.73 176.19 126 177.51 126 179C126 180.1 125.55 181 125 181C124.45 181 123.8 179.99 123.55 178.75C123.22 177.12 123.98 175.75 126.3 173.79C128.06 172.3 129.16 171.06 128.75 171.04C128.34 171.02 126.65 171.9 125 173C123.35 174.1 121.21 174.76 120.25 174.46C118.75 173.99 118.94 173.56 121.5 171.49C123.15 170.16 123.94 169.06 123.25 169.04C122.56 169.02 120.67 169.79 119.04 170.75C116.55 172.22 115.69 172.3 113.54 171.25C112.14 170.56 108.75 166.62 101 155L105.25 151.75Z" fill="#95C7B8"/>
<path d="M150.25 147.79C149.53 147.06 149.3 145.71 149.7 144.67C150.18 143.41 151.04 143.02 152.45 143.41C153.58 143.72 155.06 143.98 155.75 143.99C156.44 143.99 156.78 144.68 156.5 145.5C156.23 146.33 156.56 147.01 157.25 147.02C158.083 147.027 158 147.353 157 148C156.18 148.53 154.6 149 153.5 149.03C152.4 149.06 150.94 148.51 150.25 147.79Z" fill="#698C6E"/>
<path d="M134.01 151.75C134.01 151.06 137.02 148.85 140.68 146.82C144.35 144.8 147.61 143.39 147.92 143.68C148.24 143.98 148.97 145.19 149.54 146.36C150.28 147.87 151.46 148.48 153.54 148.42C155.17 148.37 157.18 148 158 147.6C159.13 147.04 160.54 148.72 163.75 154.43C166.09 158.59 168 162.68 168 163.5C168 164.32 167.66 165.18 167.25 165.41C166.84 165.63 164.7 166.11 158.5 167.13L161.25 164.57C162.76 163.16 164 161.78 164 161.5C164 161.23 163.66 160.99 163.25 160.97C162.84 160.96 158.56 163.21 153.75 165.97C148.94 168.74 144.66 170.99 144.25 170.98C143.84 170.97 141.36 166.92 138.75 161.98C136.14 157.04 134 152.44 134.01 151.75Z" fill="#FCFDFC"/>
<path d="M144.82 165.1C144.72 164.6 147.75 162.6 151.57 160.64C155.38 158.69 159.06 157.07 159.75 157.04C160.44 157.02 160.98 157.34 160.96 157.75C160.94 158.16 159.81 159.51 158.46 160.75C157.11 161.99 155.21 163.02 154.25 163.04C153.29 163.05 151.38 163.71 150 164.5C148.63 165.29 146.94 165.95 146.25 165.96C145.56 165.98 144.92 165.59 144.82 165.1Z" fill="#95C7B8"/>
<path d="M142.86 161.03C142.79 160.5 146.05 158.26 150.11 156.05C154.18 153.84 157.78 152.02 158.12 152.01C158.46 152.01 158.68 152.48 158.62 153.07C158.55 153.67 155.24 155.92 151.25 158.07C147.26 160.23 143.77 162 143.5 162C143.22 162 142.94 161.57 142.86 161.03Z" fill="#698C6E"/>
<path d="M282.37 145.75C282.17 145.34 282.5 144.32 283.11 143.5C283.72 142.68 284.74 142.01 285.36 142.03C285.99 142.04 289.17 143.51 292.42 145.28C295.68 147.05 298.79 149.18 299.32 150C299.86 150.82 300.01 152.29 299.65 153.25C299.29 154.22 291.78 158.68 282.8 163.25C273.88 167.79 262.52 173.61 257.55 176.2C252.57 178.78 247.94 180.92 247.25 180.95C246.56 180.98 245.79 179.99 245.54 178.75C245.28 177.51 245.39 176.21 245.79 175.87C246.18 175.52 256.06 170.46 267.75 164.62C285.87 155.56 289.01 153.67 289.04 151.75C289.07 150.18 288.11 149.04 285.91 148C284.16 147.18 282.57 146.16 282.37 145.75Z" fill="#9FF5B7"/>
<path d="M283.5 140.25C283.22 139.29 283.45 137.96 284.01 137.31C284.58 136.65 285.59 136.3 286.27 136.52C286.95 136.74 287.84 137.62 288.25 138.46C288.757 139.493 288.507 140.007 287.5 140C286.68 140 286 140.45 286 141C286 141.55 285.55 142 285 142C284.45 142 283.77 141.21 283.5 140.25Z" fill="#698C6E"/>
<path d="M221.73 134.27C221.3 133.85 221.23 132.71 221.56 131.75C221.9 130.79 223.03 130 224.08 130C225.33 130 226 130.7 226 132C226 133.1 225.21 134.24 224.25 134.52C223.29 134.81 222.15 134.7 221.73 134.27Z" fill="#698C6E"/>
<path d="M136.56 128.37C138.18 127.11 142.2 124.96 145.5 123.58C148.8 122.21 151.95 121.22 152.5 121.39C153.05 121.55 154.03 124.79 154.67 128.59C155.32 132.39 155.88 136.96 155.92 138.75C155.99 141.52 155.7 141.93 154 141.5C152.9 141.22 151.21 140.76 150.25 140.47C149.24 140.17 144.99 141.87 140.25 144.47C135.71 146.96 131.78 149 131.5 149C131.22 149 130.39 147.99 129.63 146.75C128.88 145.51 127.98 142.14 127.63 139.25C127.01 134.07 127.05 133.98 130.31 132.33C132.13 131.41 134.94 129.63 136.56 128.37Z" fill="#F0D564"/>
<path d="M258 126.5C258 125.67 258.79 123.89 259.75 122.53C260.71 121.17 261.95 120.04 262.5 120.02C263.05 120 265.3 120.89 267.5 122C269.7 123.11 272.74 124.01 274.25 124.01C275.76 124 279.7 125.35 283 127C286.3 128.65 289 130.45 289 131C289 131.55 287.67 133.46 286.04 135.25C284.41 137.04 283.06 138.84 283.04 139.25C283.02 139.66 281.76 141.59 280.25 143.54C278.74 145.49 277.21 146.73 276.86 146.29C276.51 145.86 275.5 142.91 274.61 139.75C273.12 134.43 272.6 133.78 267.75 131.03C264.86 129.4 261.49 128.05 260.25 128.03C258.93 128.01 258 127.38 258 126.5Z" fill="#F0D564"/>
<path d="M256.26 122C256.51 121.17 257.9 118.59 259.36 116.25C260.83 113.91 262.69 112 263.51 112C264.33 112 266.8 112.9 269 114C271.2 115.1 273.45 116.9 274 118C274.55 119.1 275 120.22 275 120.5C275 120.78 274.32 121.22 273.5 121.5C272.68 121.78 269.64 120.83 261.5 116.79L258.66 120.14C257.1 121.99 256.02 122.83 256.26 122Z" fill="#F0D564"/>
<path d="M257.38 117.18C256.61 116.72 257.01 115.31 258.64 112.75C260.09 110.47 261.81 109 263.01 109C264.11 109 267.25 110.13 270 111.5C272.75 112.88 275.63 115.01 276.41 116.25C277.18 117.49 279.2 119.06 280.91 119.75C283.66 120.86 283.83 121.17 282.5 122.5C281.25 123.75 280.56 123.79 278.38 122.75C276.94 122.06 275.14 120.26 274.38 118.75C273.62 117.24 271.2 115.1 269 114C266.8 112.9 264.33 112 263.5 112C262.68 112 261.21 113.32 260.25 114.93C259.25 116.61 258.02 117.57 257.38 117.18Z" fill="#698C6E"/>
<path d="M243.25 110.98C243.66 110.99 243.8 110.49 243.55 109.87C243.3 109.25 243.64 108.94 244.3 109.18C244.96 109.42 246.25 111.17 247.16 113.06C248.08 114.95 248.63 117.17 248.38 118C248.14 118.83 246.57 119.72 244.89 120C243.22 120.28 241.65 120.16 241.42 119.75C241.19 119.34 241.34 117.19 241.75 114.98C242.16 112.77 242.84 110.97 243.25 110.98Z" fill="#698C6E"/>
<path d="M219.28 128C219.58 126.63 221.55 121.35 223.66 116.27C225.77 111.2 227.95 107.03 228.5 107.01C229.05 107 232.36 108 242.23 111.5L241.61 115.75C241.02 119.87 241.11 120.05 244.5 121.5C246.833 122.5 248 123.667 248 125C248 126.1 247.29 127.68 246.43 128.5C245.56 129.32 243.99 130 242.93 130C241.87 130 238.41 129.3 235.25 128.44C232.09 127.58 229.28 127.15 229 127.48C228.72 127.82 229.51 128.3 230.75 128.55C231.99 128.8 233 129.45 233 130C233 130.55 231.99 131.18 230.75 131.4C229.51 131.62 227.24 131.28 225.71 130.65C223.42 129.71 222.76 129.77 222.07 131C221.48 132.04 220.85 132.2 219.98 131.5C219.29 130.94 218.98 129.41 219.28 128Z" fill="#95C7B8"/>
<path d="M221 118.09C219.71 117.33 219.83 116.53 221.9 112.25C223.36 109.22 224.8 107.47 225.6 107.75C226.32 108.01 226.9 108.5 226.89 108.86C226.88 109.21 225.89 111.63 224.69 114.24C222.99 117.92 222.17 118.78 221 118.09Z" fill="#698C6E"/>
<path d="M160.8 117.08C160.64 108.32 160.89 106.07 162.05 105.66C162.85 105.38 166.76 105.12 178 105L177.98 108.25C177.97 110.04 178.54 112.07 179.23 112.77C179.93 113.46 181.96 114.03 183.75 114.02C186.99 114 187 114.02 187 119C187 123.07 186.67 124.01 185.25 124.06C184.29 124.1 179.22 124.06 174 123.97C165.26 123.83 164.62 123.95 166 125.45C166.82 126.35 167.05 127.08 166.5 127.06C165.95 127.04 164.49 127.25 163.25 127.51C161.03 127.99 161 127.84 160.8 117.08Z" fill="#95C7B8"/>
<path d="M234.5 106C235.32 106 236.23 104.88 236.52 103.5C236.8 102.13 237.43 101 237.91 101C238.39 101 238.58 102.46 238.33 104.25C237.91 107.17 238.21 107.64 241.18 108.84C243.01 109.57 244.05 110.4 243.5 110.67C242.95 110.94 239.57 110.19 236 109.01C232.43 107.82 228.49 107.11 227.25 107.43C225.69 107.83 225.05 107.58 225.16 106.61C225.24 105.84 225.92 104.94 226.66 104.61C227.39 104.27 229.12 104.45 230.5 105C231.87 105.55 233.68 106 234.5 106Z" fill="#293A25"/>
<path d="M212.75 99.98C215.91 99.98 219.13 99.57 219.91 99.07C220.68 98.58 222.71 98.35 224.41 98.56C226.11 98.77 229.64 99.18 232.25 99.47C236.82 99.98 236.98 100.1 236.42 102.75C236.1 104.26 235.63 105.73 235.39 106C235.14 106.28 233.27 105.94 231.22 105.27C229.17 104.59 227.16 104.03 226.75 104.02C226.34 104.01 224.83 106.59 223.4 109.75C221.04 114.99 220.73 115.3 219.9 113.25C219.41 112.01 217.09 109.21 214.75 107.03C212.41 104.84 209.71 103.04 208.75 103.03C207.79 103.01 207 102.33 207 101.5C207 100.34 208.31 100 212.75 99.98Z" fill="#F0D564"/>
<path d="M230.75 96.15C234.3 96.05 235.84 95.63 235.5 94.85C235.22 94.21 235.45 93.99 236 94.35C236.55 94.71 237.68 96.35 240 101L236.75 100.36C234.96 100.01 233.05 99.14 232.5 98.42C231.95 97.71 230.15 96.94 228.5 96.71C226.65 96.46 227.51 96.24 230.75 96.15Z" fill="#698C6E"/>
<path d="M186.4 103.86C187.99 103.11 192.64 98.79 196.74 94.25C200.83 89.71 204.59 86 205.09 86C205.59 86 206 86.67 206 87.5C206 88.33 207.01 89.22 208.25 89.49C209.49 89.75 212.3 90 214.5 90.03C216.92 90.07 219.09 89.46 220 88.5C220.82 87.63 222.06 86.93 222.75 86.96C223.44 86.98 223.99 87.34 223.97 87.75C223.96 88.16 223.17 89.29 222.22 90.26C221.28 91.22 220.72 92.25 221 92.54C221.27 92.83 224.59 93.39 228.36 93.79C232.13 94.18 235.39 94.84 235.61 95.25C235.82 95.66 233.64 96.07 230.75 96.15C227.76 96.24 226.66 96.49 228.21 96.74C229.69 96.99 231.49 97.63 232.21 98.16C233.09 98.82 231.43 99.12 227 99.1C223.42 99.09 217.46 99.28 213.75 99.54C208.62 99.89 207 100.36 207 101.5C207 102.33 207.79 103.01 208.75 103.01C209.71 103.02 212.64 105.04 215.25 107.51C218.86 110.93 220 112.72 220 115C220 116.65 220.52 118.11 221.16 118.25C221.99 118.43 221.85 119.92 220.65 123.5C219.73 126.25 218.99 128.95 219.01 129.5C219.03 130.05 219.82 131.53 220.77 132.79C221.86 134.24 223.15 134.89 224.25 134.54C225.21 134.24 226 133.32 226 132.5C226 131.68 226.79 131.07 227.75 131.16C228.71 131.25 230.29 131.25 231.25 131.16C232.21 131.07 233 130.55 233 130C233 129.45 231.99 128.8 230.75 128.55C229.51 128.3 228.72 127.82 229 127.48C229.27 127.15 232.09 127.58 235.25 128.44C238.41 129.3 241.87 130 242.93 130C243.99 130 245.56 129.32 246.43 128.5C247.29 127.68 248 126.1 248 125C248 123.84 246.85 122.39 242.5 120.08L245.25 120.04C247.01 120.01 248 119.46 248 118.5C248 117.67 248.45 117 249 117C249.55 117 250.9 117.45 252 118C253.42 118.71 254.44 118.64 255.52 117.75C256.36 117.06 257.26 116.84 257.52 117.25C257.79 117.66 257.55 118.9 257 120C256.45 121.1 256.01 122.34 256.03 122.75C256.04 123.16 257.28 121.99 261.5 116.79L266.75 119.39C269.64 120.83 272.56 121.74 273.25 121.42C273.94 121.1 276.07 121.59 278 122.51C280.58 123.74 281.63 123.87 282 122.99C282.38 122.09 283.41 122.07 286.25 122.9C288.31 123.5 290.17 124.34 290.38 124.75C290.59 125.16 291.05 126.85 291.39 128.5C291.87 130.8 291.45 132.2 289.6 134.5C288.27 136.15 286.91 137.16 286.59 136.75C286.27 136.34 286.68 134.99 287.51 133.75C288.34 132.51 289.01 131.16 289.01 130.75C289 130.34 286.3 128.65 283 127C279.7 125.35 275.42 124 273.5 124C271.57 124 269.77 123.55 269.5 123C269.23 122.45 267.42 121.55 265.5 121C262.43 120.12 261.76 120.27 260.03 122.25C258.95 123.49 258.05 125.29 258.03 126.25C258.01 127.4 258.77 128.01 260.25 128.03C261.49 128.05 264.86 129.4 267.75 131.03C272.6 133.77 273.12 134.44 274.62 139.75C275.51 142.91 276.48 145.95 276.76 146.5C277.04 147.05 278.77 145.7 280.6 143.5C282.95 140.67 283.94 140.01 283.96 141.25C283.98 142.21 283.55 143.22 283 143.5C282.45 143.78 282 144.45 282 145C282 145.55 283.58 146.79 285.52 147.75C288 148.98 289.04 150.16 289.02 151.75C289 153.67 285.92 155.54 267.75 164.62C256.06 170.46 246.18 175.52 245.79 175.87C245.39 176.21 245.28 177.51 245.54 178.75C245.79 179.99 246.45 181 247 181C247.55 181 252.5 178.75 258 176C263.5 173.25 268.23 171 268.5 171C268.77 171 268.99 171.56 268.98 172.25C268.97 172.94 264.43 175.75 258.89 178.5C253.35 181.25 248.63 183.84 248.41 184.25C248.18 184.66 248.67 186.35 249.5 188C250.32 189.65 251.22 191 251.5 191C251.77 191 262.42 185.71 275.15 179.25C287.88 172.79 298.91 166.6 299.66 165.5C300.4 164.4 301.01 162.04 301.01 160.25C301 158.46 300.66 157.12 300.25 157.26C299.84 157.4 295.79 159.43 291.25 161.76C286.71 164.09 282.77 165.78 282.5 165.5C282.23 165.22 282.23 164.55 282.5 164C282.77 163.45 286.6 161.2 291 159C295.4 156.8 299.29 154.21 299.65 153.25C300.01 152.29 299.86 150.82 299.32 150C298.79 149.18 295.68 147.06 292.42 145.31C289.17 143.55 286.39 141.64 286.25 141.06C286.11 140.48 286.67 140 287.5 140C288.32 140 292 141.69 295.66 143.75C299.46 145.89 302.67 148.46 303.16 149.75C303.62 150.99 304 154.7 304 158C304 161.3 303.54 165.01 302.98 166.25C302.42 167.49 300.73 169.24 299.23 170.15C296.7 171.68 296.45 172.43 295.77 180.65C295.37 185.52 294.69 196.14 293.5 219.01H297.75C300.86 219 302 219.4 302 220.5C302 221.33 302.89 222 304 222C305.1 222 305.77 222.45 305.5 223C305.23 223.55 302.41 223.98 299.25 223.96C295.25 223.92 293.04 224.39 292 225.5C291.02 226.53 288.84 227.07 285.75 227.04C282.93 227.02 281.2 226.59 281.5 226C281.77 225.45 283.69 224.99 285.75 224.98C287.92 224.96 290.55 224.13 292 223C294.29 221.21 294.33 221.04 292.5 221.04C291.4 221.04 290.05 220.56 289.5 219.98C288.85 219.29 286.41 219.2 276.5 220.5L276.19 225C276.01 227.48 275.44 229.95 274.92 230.5C274.31 231.14 273.97 229.43 273.98 225.75C274 220.91 274.36 219.76 276.25 218.49C277.64 217.56 280.8 216.99 290.5 217.01L291.25 201.75C291.67 193.36 292 183.69 292 174L271.95 184.25C256.61 192.09 252.05 194.85 252.54 196C252.89 196.82 253.36 198.96 253.59 200.75C253.99 203.9 253.79 204.1 247.25 207.1C243.54 208.8 238.7 210.86 236.5 211.68C234.3 212.5 231.49 213.35 230.25 213.58C228.77 213.86 227.57 213.32 226.75 212C226.06 210.89 225.05 209.98 224.5 209.97C223.95 209.96 219.45 212.03 214.5 214.57C209.55 217.11 198.07 222.94 189 227.54C179.92 232.14 171.03 236.27 165.95 237.5L165.98 280.75C165.99 308.93 165.65 324 165 324C164.35 324 164 308.83 164 280.5C164 239.73 163.89 237 162.25 237.02C161.29 237.04 158.25 235.86 155.5 234.42C152.75 232.97 148.47 230.63 146 229.22C143.52 227.81 137 224.23 131.5 221.26C126 218.3 119.37 214.89 116.77 213.69C114.17 212.49 112.04 211.16 112.02 210.75C112.01 210.34 113.12 207.97 114.5 205.5C115.87 203.03 117.45 201 118 201C118.55 201 118.98 201.34 118.96 201.75C118.95 202.16 118.29 203.62 117.5 205C116.71 206.37 116.05 208.06 116.04 208.75C116.02 209.44 119.49 211.87 123.75 214.15C128.01 216.43 137.91 221.83 145.75 226.15C158.49 233.17 160.56 234 165.25 233.98C170.01 233.96 172.98 232.69 197 220.38C211.57 212.91 223.65 206.73 223.82 206.65C224 206.57 223.66 204.81 223.07 202.75C222.48 200.69 221.55 199 221 199C220.45 199 216.62 200.8 212.5 203C208.37 205.2 204.44 207.02 203.75 207.04C202.86 207.08 202.93 206.61 204 205.42C204.82 204.5 208.65 202.18 212.5 200.26C216.35 198.34 219.72 196.59 220 196.37C220.27 196.15 219.94 194.86 218 191L193.5 203.5C175.17 212.85 168.06 216 165.25 216.02C163.19 216.03 160.6 215.32 159.5 214.45C158.13 213.37 157.89 212.74 158.75 212.44C159.59 212.14 159.82 210.78 159.44 208.25C158.9 204.65 158.94 204.58 160.52 206.5C162.09 208.41 162.15 208.27 161.5 198.56L166 196.4C168.47 195.21 171.4 193.27 174.5 189.93L170.25 189.97C167.91 189.99 163.97 190.9 161.5 192C157.4 193.82 157.06 194.24 157.62 196.75C158.2 199.28 158.11 199.38 156.54 198C155.51 197.1 155.06 195.7 155.39 194.5C155.69 193.4 157.98 191.49 160.47 190.25C162.96 189.01 166.8 188 169 188C171.2 188 173.68 187.78 174.5 187.5C175.32 187.22 176 186.32 176 185.5C176 184.68 175.44 184 174.75 184C174.06 184.01 172.94 183.11 172.25 182C171.52 180.83 171.42 180 172 180C172.55 180 173.01 179.21 173.02 178.25C173.03 177.29 172.41 175.6 171.64 174.5C170.26 172.53 170.19 172.53 164.5 176.25L167 177.98C169.21 179.52 169.3 179.79 167.75 180.36C166.79 180.71 165.44 180.74 164.75 180.43C164.06 180.11 161.14 181.01 158.25 182.43C155.36 183.84 152.55 185 152 185C151.45 185 151.22 184.55 151.5 184C151.77 183.45 154.25 181.87 157 180.5C161.76 178.12 161.97 177.85 161.39 174.75C161.06 172.96 160.5 171.15 160.14 170.73C159.79 170.3 156.25 171.42 152.28 173.23C148.31 175.03 144.84 177.18 144.56 178C144.28 178.82 141.91 180.55 134.5 184.17L135.2 188.34C135.58 190.63 136.48 194.29 137.2 196.49C138.05 199.1 139.19 200.59 140.5 200.82C141.6 201.01 144.2 200.34 146.28 199.33C148.36 198.33 150.05 197.16 150.03 196.75C150.01 196.34 149.32 194.65 148.5 193C147.36 190.73 147.3 189.99 148.25 189.98C148.94 189.97 150.29 191.54 151.25 193.48C152.21 195.42 153.01 197.56 153.02 198.25C153.02 198.94 151.37 199.95 149.34 200.5C147.31 201.05 145.51 202.06 145.33 202.75C145.15 203.44 146.8 204.9 149 206C151.2 207.1 153 208.45 153 209C153 209.55 152.55 210 152 210C151.45 210 145.54 206.96 138.87 203.25C132.2 199.54 126.46 196.07 126.12 195.55C125.74 194.96 126.76 194.86 128.75 195.3C131.29 195.85 132 195.67 132 194.5C132 193.68 132.45 193 133 193C133.62 193 133.76 191 132.75 182.5L137 180.5C139.33 179.4 141.64 177.71 142.12 176.75C142.82 175.35 142.49 174.9 140.5 174.5C138.98 174.2 136.05 174.98 133 176.5C129.12 178.44 128.14 179.39 128.63 180.75C128.97 181.71 129.45 183.62 129.69 185C130.1 187.34 130.03 187.39 128.57 185.75C127.65 184.73 126.17 184.21 125 184.5C123.48 184.88 122.88 184.4 122.5 182.5C122.22 181.12 121.32 180 120.5 180C119.61 180 119.2 179.39 119.5 178.5C119.77 177.68 119.55 177 119 177C118.45 177 118 176.55 118 176C118 175.45 119.01 174.99 120.25 174.98C121.49 174.97 123.62 174.08 125 173C126.37 171.92 127.95 171.05 128.5 171.06C129.05 171.07 128.06 172.3 126.3 173.79C123.98 175.75 123.22 177.12 123.55 178.75C123.8 179.99 124.45 181 125 181C125.55 181 126 180.1 126 179C126 177.5 127.75 176.19 133.02 173.75C139.17 170.9 139.98 170.22 139.52 168.25C139.24 167.01 139.45 166 140 166C140.55 166 141.56 167.14 142.25 168.53C142.94 169.92 143.72 171.06 144 171.06C144.27 171.07 148.21 169.03 152.75 166.53C157.29 164.04 161.56 162.17 162.25 162.37C162.94 162.57 162.25 163.36 160.72 164.12C159.19 164.88 157.96 165.84 157.97 166.25C157.99 166.66 158.69 167.34 159.54 167.75C160.41 168.18 161.57 167.96 162.24 167.25C162.88 166.56 164.1 166.01 164.95 166.03C166.27 166.06 166.24 166.25 164.79 167.28C163.85 167.95 163.06 169.51 163.04 170.75C163.02 171.99 163.45 173 164 173C164.55 173 166.17 172.44 167.59 171.75C169.79 170.69 170.09 170.04 169.59 167.5C169.26 165.85 167.01 160.68 164.59 156C161.4 149.83 159.62 147.43 158.1 147.25C156.85 147.1 156.22 146.49 156.54 145.75C156.88 144.96 155.86 144.22 153.79 143.75C151.52 143.24 150.31 143.39 149.87 144.25C149.38 145.25 149.12 145.25 148.62 144.25C148.17 143.34 146.08 144.03 141.01 146.75C137.06 148.87 134.03 151.15 134.04 152C134.06 152.82 134.71 154.62 135.5 156C136.29 157.37 136.95 159.06 136.96 159.75C136.98 160.44 136.55 160.78 136 160.5C135.45 160.22 133.66 157.64 132.02 154.75C130.38 151.86 128.63 148.82 128.12 148C127.34 146.71 126.78 146.82 124.11 148.75C122.4 149.99 120.32 150.78 119.5 150.5C118.67 150.22 118 149.55 118 149C118 148.45 118.79 148.26 119.75 148.58C120.75 148.91 122.04 148.49 122.75 147.58C123.78 146.28 123.69 145.9 122.25 145.4C121.29 145.08 119.82 144.55 119 144.23C117.92 143.81 118.14 143.56 119.75 143.32C121.36 143.09 122.09 142.22 122.61 137.5L123.81 140.25C124.46 141.76 125.22 143 125.5 143C125.77 143 125.77 141.2 125.5 139C125.22 136.8 125.45 134.78 126 134.5C126.57 134.21 127.25 136.25 127.57 139.25C127.89 142.14 128.9 145.57 131.5 149.27L140 144.6C144.9 141.92 149.24 140.16 150.25 140.47C151.21 140.76 152.9 141.22 154 141.5C155.7 141.93 155.99 141.52 155.92 138.75C155.88 136.96 155.32 132.5 154.67 128.83C154.03 125.17 153.27 121.89 153 121.55C152.72 121.2 149.57 122.07 146 123.48C142.43 124.88 139.39 126.02 139.25 126.01C139.11 126.01 139.22 125.55 139.5 125C139.77 124.45 141.91 123.03 144.25 121.84C146.59 120.66 147.94 119.53 147.25 119.34C146.56 119.15 146.22 118.55 146.5 118C146.77 117.45 147.9 117 149 117C150.1 117 151.9 117.56 153 118.25C154.53 119.21 155.42 119.23 156.75 118.34C157.71 117.71 158.39 116.69 158.25 116.09C158.11 115.49 158.68 114.78 159.5 114.5C160.74 114.09 161 115.22 161 121C161 124.85 161.34 127.99 161.75 127.99C162.16 127.98 163.5 127.64 164.72 127.24C166.51 126.64 166.71 126.24 165.72 125.16C164.71 124.05 166.11 123.85 174 123.97C179.22 124.06 184.29 124.1 185.25 124.06C186.67 124.01 187 123.07 187 119C187 114.02 186.99 114 183.75 114.02C181.96 114.03 179.93 113.46 179.23 112.77C178.54 112.07 177.97 110.38 177.97 109C177.97 107.63 178.54 105.97 179.23 105.31C179.93 104.66 181.18 104.37 182 104.67C182.82 104.98 184.8 104.61 186.4 103.86Z" fill="#293A25"/>
<path d="M194.5 200C194.22 200 194 199.1 194 198C194 196.38 194.67 196 197.5 196C199.43 196 201 196.22 201 196.5C201 196.78 199.65 197.68 198 198.5C196.35 199.32 194.78 200 194.5 200Z" fill="#95C7B8"/>
<path d="M235.24 197.07C238.69 195.74 241.93 194.28 242.45 193.82C242.97 193.37 243.7 193 244.07 193C244.43 193 244.64 193.56 244.53 194.25C244.42 194.94 240.88 196.96 236.67 198.75C231.59 200.9 229 201.58 228.99 200.75C228.99 200.06 231.8 198.41 235.24 197.07Z" fill="#698C6E"/>
<path d="M227.25 195.94C227.39 195.35 230.43 193.6 234 192.04C237.57 190.48 241.06 189.16 241.75 189.1C242.44 189.05 243 189.45 243 190C243 190.55 239.63 192.35 235.5 194C231.38 195.65 227.78 197 227.5 197C227.23 197 227.11 196.52 227.25 195.94Z" fill="#698C6E"/>
<path d="M193.29 192.25C192.58 191.56 192.07 190.5 192.15 189.88C192.24 189.24 193.2 189.02 194.4 189.36C195.56 189.69 198.87 190.49 201.77 191.14C204.68 191.79 207.06 192.58 207.06 192.91C207.07 193.23 205.6 194.12 203.79 194.87C201 196.03 200.05 196.03 197.54 194.87C195.91 194.12 194 192.94 193.29 192.25Z" fill="#CFE5E5"/>
<path d="M173.54 194.06C174.62 193 178.2 191 181.5 189.61C184.8 188.22 188.11 187.06 188.86 187.04C189.79 187.01 190.48 189.12 191.07 193.75C191.54 197.46 191.61 200.82 191.21 201.21C190.82 201.6 185.21 204.63 178.75 207.96C172.29 211.28 166.66 213.83 166.25 213.61C165.84 213.4 165.12 210.82 164.65 207.86C164.19 204.91 163.63 201.94 163.4 201.25C163.18 200.55 164.88 199.12 167.29 198C169.64 196.89 172.46 195.12 173.54 194.06Z" fill="#F0D564"/>
<path d="M225.01 191.25C225.02 190.84 228.28 189.08 232.26 187.35C236.24 185.61 239.84 184.15 240.25 184.1C240.66 184.04 241 184.45 241 185C241 185.55 238.53 187.13 235.5 188.5C232.48 189.88 228.88 191.23 227.5 191.5C226.13 191.78 225.01 191.66 225.01 191.25Z" fill="#698C6E"/>
<path d="M242.5 184C243.32 184 243.99 183.44 243.97 182.75C243.96 182.06 244.14 181.72 244.37 182C244.61 182.28 246.42 186.66 248.4 191.75C250.38 196.84 252 201.45 252 202C252 202.55 247.39 204.8 241.75 207C236.11 209.21 230.71 211.01 229.75 211C228.64 211 227.8 209.99 227.45 208.25C227.07 206.35 227.38 205.27 228.45 204.75C229.3 204.34 229.99 203.44 229.97 202.75C229.96 202.06 233.11 200.26 236.97 198.75C240.84 197.24 244.22 195.55 244.5 195C244.78 194.45 244.89 193.77 244.75 193.49C244.61 193.21 243.15 193.66 241.5 194.48C239.85 195.31 238.16 195.99 237.75 195.99C237.34 196 236.98 195.44 236.96 194.75C236.94 194.06 238.31 192.82 240 192C241.69 191.18 243.06 190.16 243.04 189.75C243.02 189.34 242.55 189 242 189C241.45 189 239.76 189.62 238.25 190.37C236.74 191.13 234.49 192.03 233.25 192.37C231.79 192.78 230.99 192.56 230.97 191.75C230.95 191.06 232.97 189.71 235.47 188.75C237.96 187.79 240.22 186.32 240.5 185.5C240.78 184.68 241.68 184 242.5 184Z" fill="#CFE5E5"/>
<path d="M231.25 204.94C231.39 204.35 234.43 202.6 238 201.04C241.57 199.48 245.06 198.16 245.75 198.1C246.44 198.05 247.02 198.34 247.03 198.75C247.05 199.16 243.68 200.96 239.53 202.75C235.39 204.54 231.78 206 231.5 206C231.22 206 231.11 205.52 231.25 204.94Z" fill="#698C6E"/>
<path d="M238 178C236.9 178 235.52 177.1 234.94 176C234.36 174.9 234.02 173.99 234.19 173.98C234.36 173.97 235.96 174.42 237.75 174.98C239.54 175.54 240.78 176.45 240.5 177C240.22 177.55 239.1 178 238 178Z" fill="#95C7B8"/>
<path d="M217.66 179.83C218.12 179.46 221.2 178.04 224.5 176.67C227.8 175.3 230.84 174.14 231.25 174.09C231.66 174.04 232.43 175.24 232.96 176.75C233.49 178.26 234.62 179.84 235.46 180.25C236.31 180.66 237.9 180.55 239 180C240.1 179.45 241.68 179 242.5 179C243.43 179 244 179.94 244 181.5C244 183.21 243.45 184 242.25 184C241.29 184 237.02 185.46 232.76 187.25C228.51 189.04 225.02 190.84 225.01 191.25C225.01 191.66 226.35 191.78 228 191.5C230.22 191.13 231 191.39 231 192.5C231 193.32 230.32 194 229.5 194C228.68 194 227.78 194.45 227.5 195C227.22 195.55 227.11 196.24 227.25 196.54C227.39 196.84 229.3 196.38 231.5 195.52C233.7 194.66 235.84 193.96 236.25 193.98C236.66 193.99 237 194.45 237 195C237 195.55 235.21 196.79 233.01 197.75C229.76 199.18 229.07 199.96 229.26 201.96C229.41 203.49 228.93 204.55 228 204.75C226.91 204.99 225.16 201.68 221.66 192.79C219 186.03 217.2 180.2 217.66 179.83Z" fill="#FCFDFC"/>
<path d="M222.83 187.11C222.74 186.62 224.43 185.51 226.58 184.66C228.74 183.8 231.06 183.08 231.75 183.05C232.44 183.02 233 183.45 233 184C233 184.55 231.2 185.68 229 186.5C226.8 187.32 224.55 188 224 188C223.45 188 222.92 187.6 222.83 187.11Z" fill="#698C6E"/>
<path d="M203.54 175C202.68 172.53 202.04 170.11 202.12 169.64C202.2 169.16 203.9 169.15 205.89 169.6C207.87 170.05 211.3 170.34 213.5 170.25C215.7 170.15 219.97 170.56 228.5 172.24L222 175.37C216.05 178.23 215.51 178.76 215.63 181.5C215.7 183.15 216.08 185.4 216.47 186.5C217.02 188.07 216.56 188.78 214.34 189.78C211.98 190.85 210.4 190.8 205 189.52C201.43 188.68 198.28 187.78 198 187.52C197.72 187.27 199.07 186.69 201 186.22C203.9 185.53 204.55 184.88 204.8 182.44C204.97 180.82 204.4 177.48 203.54 175Z" fill="#F0D564"/>
<path d="M200.88 164.75C200.4 163.79 200.25 162.55 200.55 162C200.85 161.45 201.75 161 202.55 161C203.35 161 206.08 161.56 208.63 162.25C211.41 163 213.65 164.3 214.23 165.5C214.93 166.95 214.83 167.7 213.85 168.24C213.11 168.65 211.82 168.74 211 168.44C210.18 168.15 207.76 167.59 205.63 167.2C203.49 166.82 201.37 165.72 200.88 164.75Z" fill="#F0D564"/>
<path d="M190.5 157C188.67 157 188 156.47 188 155C188 153.9 188.22 153 188.5 153C188.78 153 190.12 153.45 191.5 154C192.87 154.55 193.78 155.45 193.5 156C193.22 156.55 191.88 157 190.5 157Z" fill="#698C6E"/>
<path d="M169.26 157.31C169.39 157.21 172.43 155.99 176 154.61C179.57 153.23 183.06 152.08 183.75 152.05C184.44 152.02 185.45 153.57 186 155.5C186.98 158.91 187.12 158.99 196.35 158.5L199.74 170C201.6 176.32 202.94 181.95 202.71 182.5C202.49 183.05 200.1 184.12 197.4 184.88C193.67 185.93 191.96 185.99 190.25 185.13C189.01 184.51 188.17 183.66 188.37 183.25C188.58 182.84 190.83 181.94 193.37 181.25C195.92 180.56 198 179.55 198 179C198 178.45 197.21 178.25 196.25 178.55C195.29 178.86 192.03 179.81 189 180.66C185.97 181.51 182.49 182.83 181.25 183.6C179.15 184.9 178.87 184.78 177.1 181.75C176.05 179.96 173.81 173.77 172.11 168C170.42 162.22 169.14 157.41 169.26 157.31Z" fill="#95C7B8"/>
<path d="M210 153.5C206.97 153.11 204.05 152.34 203.5 151.77C202.82 151.08 204.26 150.97 208 151.44C211.03 151.81 213.95 152.59 214.5 153.16C215.19 153.88 213.8 153.99 210 153.5Z" fill="#293A25"/>
<path d="M237.38 154.75C237.04 154.06 236.96 152.58 237.19 151.47C237.43 150.35 238.5 149.35 239.56 149.26C240.79 149.14 241.97 150.07 242.78 151.79C243.48 153.28 243.93 154.55 243.78 154.61C243.62 154.67 242.26 155.01 240.75 155.36C238.99 155.77 237.78 155.55 237.38 154.75Z" fill="#698C6E"/>
<path d="M199 152C197.76 152 197.06 151.38 197.15 150.38C197.26 149.24 197.92 148.94 199.4 149.37C200.56 149.7 201.95 149.98 202.5 149.99C203.05 149.99 203.5 150.68 203.5 151.51C203.5 152.34 202.94 152.79 202.25 152.51C201.56 152.23 200.1 152 199 152Z" fill="#95C7B8"/>
<path d="M246 152.47C244.66 150.96 244.71 150.64 246.47 149.39C247.56 148.63 249.92 148 251.72 148C253.53 148 255.01 148.34 255.02 148.75C255.03 149.16 254.46 150.26 253.77 151.2C253.07 152.13 251.38 153.18 250 153.52C248.3 153.95 247.02 153.62 246 152.47Z" fill="#F0D564"/>
<path d="M208.5 151.5C207.68 151.22 206.98 150.35 206.95 149.55C206.9 148.38 207.94 148.21 212.2 148.69C215.11 149.01 217.63 149.33 217.79 149.39C217.94 149.45 217.38 152.09 216.54 155.25C215.06 160.77 214.89 160.97 212.25 160.36C210.74 160.01 209.28 159.54 209 159.33C208.73 159.12 209.74 158.96 211.25 158.97C212.76 158.99 213.83 158.66 213.62 158.25C213.41 157.84 211.16 157.16 208.62 156.75C205.51 156.25 204 155.51 204 154.5C204 153.29 205.06 153.1 209.5 153.5C212.99 153.82 214.82 153.63 214.5 153C214.23 152.45 213.1 152 212 152C210.9 152 209.32 151.77 208.5 151.5Z" fill="#CFE5E5"/>
<path d="M215.17 159.71C215.55 159.05 216.6 155.28 217.51 151.35C218.72 146.16 219.56 144.31 220.59 144.6C221.39 144.83 221.79 145.76 221.51 146.75C221.24 147.71 220.11 151.76 219.01 155.75C217.9 159.74 217.23 163.45 217.5 164C217.78 164.55 218.9 165 220 165C221.333 165 221.833 164.5 221.5 163.5C221.167 162.5 221.667 162 223 162C224.1 162 227.59 162.72 230.75 163.61C233.91 164.5 236.95 165.63 237.5 166.13C238.12 166.69 237.29 167.03 235.32 167.02C233.57 167.01 231.44 167.68 230.57 168.5C229.22 169.79 228.03 169.83 222.03 168.75C216.44 167.75 214.85 167.05 214.03 165.25C213.33 163.73 211.86 162.84 209.5 162.5C207.43 162.2 206.1 161.49 206.25 160.75C206.41 159.94 205.02 159.41 202.25 159.25C198.75 159.04 198 158.65 198 157C198 155.9 197.48 155 196.83 155C196.19 155 195.85 154.77 196.08 154.5C196.31 154.22 200.1 154.74 204.5 155.65C208.9 156.56 212.95 157.7 213.5 158.17C214.1 158.69 213.29 159.06 208.5 159.17L211.5 160.05C213.6 160.66 214.7 160.56 215.17 159.71Z" fill="#698C6E"/>
<path d="M200.25 146.49C199.01 146.22 198.15 145.63 198.32 145.18C198.5 144.74 202.29 145.07 206.75 145.93C211.2 146.8 215.22 147.85 215.67 148.28C216.13 148.71 215.38 149.03 214 149C212.63 148.97 209.48 148.51 207 147.97C204.53 147.43 201.49 146.76 200.25 146.49Z" fill="#293A25"/>
<path d="M256.25 151.64C256.66 150.74 260.04 148.45 263.75 146.55C267.46 144.66 270.89 143.19 271.38 143.3C271.86 143.41 272.85 145.75 273.58 148.5C274.31 151.25 274.93 154.51 274.96 155.75C274.99 157.64 273.06 158.97 262.75 164.08C253.35 168.75 250.33 169.86 249.75 168.83C249.34 168.1 248.52 165.7 247.94 163.5C247.36 161.3 247.13 158.94 247.44 158.25C247.75 157.56 249.69 156.16 251.75 155.14C253.81 154.12 255.84 152.55 256.25 151.64Z" fill="#F0D564"/>
<path d="M217.5 164C217.22 163.45 218.24 158.47 219.75 152.92L222.5 142.85L227 143.54C229.47 143.92 233.07 144.8 235 145.49C237.56 146.41 238.41 147.25 238.17 148.62C237.99 149.66 237.76 151.6 237.67 152.95C237.53 154.99 238.14 155.57 241.33 156.45C244.74 157.39 245.09 157.77 244.54 160C244.19 161.38 243.26 164.86 242.46 167.75C241.32 171.85 240.56 173 239 173C237.9 173 237 172.55 237 172C237 171.45 235.88 170.55 234.5 170C233.13 169.45 232 168.55 232 168C232 167.45 233.46 167.01 235.25 167.02C237.26 167.03 238.12 166.69 237.5 166.13C236.95 165.63 233.91 164.5 230.75 163.61C227.59 162.72 224.1 162 223 162C221.667 162 221.167 162.5 221.5 163.5C221.833 164.5 221.333 165 220 165C218.9 165 217.78 164.55 217.5 164Z" fill="#95C7B8"/>
<path d="M266.8 137.82C266.64 137.45 267.36 136.97 268.39 136.77C269.42 136.57 270.7 136.56 271.24 136.76C271.77 136.95 272.16 137.99 272.1 139.05C272.05 140.12 271.66 140.98 271.25 140.96C270.84 140.94 269.73 140.38 268.79 139.71C267.85 139.04 266.95 138.19 266.8 137.82Z" fill="#95C7B8"/>
<path d="M225.76 137.33C225.63 135.61 226.51 134.86 230.05 133.66C232.5 132.83 235.4 132.13 236.5 132.09C237.6 132.06 239.51 132.25 240.75 132.51C242.35 132.86 243 133.72 243 135.5C243 136.88 243.56 140.02 244.25 142.48C244.94 144.95 245.16 147.2 244.75 147.48C244.34 147.77 243.21 147.2 242.25 146.23C241.29 145.25 237.8 143.85 234.5 143.12C231.2 142.38 227.92 141.26 227.21 140.64C226.49 140.01 225.84 138.53 225.76 137.33Z" fill="#F0D564"/>
<path d="M263.77 134.77C263.36 134.07 263.04 132.93 263.06 132.22C263.08 131.27 263.89 131.37 269.5 134.29L267 135.17C265.25 135.78 264.28 135.67 263.77 134.77Z" fill="#95C7B8"/>
<path d="M245.74 134.82C246.16 134.45 248.97 133.47 252 132.66C255.02 131.85 258.18 131.14 259 131.08C259.86 131.02 260.93 132.35 261.5 134.21C262.19 136.42 263.29 137.62 265 138.01C267.34 138.54 267.18 138.75 262.5 141.36C259.75 142.89 256.15 144.37 254.5 144.64C252.85 144.91 250.6 145.32 249.5 145.54C247.81 145.89 247.3 145.13 246.24 140.73C245.55 137.85 245.32 135.19 245.74 134.82Z" fill="#FCFDFC"/>
<path d="M218 136C216.53 136 216 135.33 216 133.5C216 132.12 216.34 131.02 216.75 131.04C217.16 131.06 218.05 131.85 218.72 132.79C219.39 133.73 219.95 134.84 219.97 135.25C219.99 135.66 219.1 136 218 136Z" fill="#95C7B8"/>
<path d="M176.58 133.38C177.17 132.57 180.55 131.06 184.08 130.03C187.61 129 191.51 128.12 192.75 128.08C193.99 128.03 195 128.45 195 129C195 129.55 194.09 134.16 192.97 139.25C191.86 144.34 190.74 149.06 190.47 149.75C190.13 150.66 189.39 150.73 187.75 150.01C186.02 149.25 183.52 149.68 177 151.87C172.32 153.44 168.16 154.56 167.75 154.36C167.34 154.16 167 150.18 167 137L171.25 135.93C173.59 135.34 175.99 134.19 176.58 133.38Z" fill="#F0D564"/>
<path d="M161.73 131C162.15 130.53 164.07 129.71 166 129.17C167.92 128.63 170.4 128.17 171.5 128.16C172.6 128.15 174.27 128.45 175.21 128.82C176.44 129.31 176.66 129.93 176.01 131C175.5 131.82 172.7 133.19 169.79 134.04C164.92 135.46 164.46 135.86 163.96 139.04C163.43 142.47 163.42 142.46 162.19 137.17C161.51 134.24 161.31 131.46 161.73 131Z" fill="#F0D564"/>
<path d="M194.23 144.31C195.18 140.01 196.44 134.14 197.05 131.25C197.65 128.36 198.33 126 198.57 126C198.81 126 201.36 126.47 204.25 127.05C207.029 127.598 210.251 128.248 211.597 128.519L211.75 128.55C213.6 128.92 214.04 129.75 214.25 133.19C214.48 137.07 214.76 137.45 218 138.28C219.92 138.78 221.61 139.36 221.75 139.59C221.89 139.82 221.32 141.01 220.49 142.25C219.66 143.49 218.99 145.29 218.99 146.25C219 147.21 218.55 148.22 218 148.5C217.45 148.78 216.44 148.61 215.75 148.12C215.06 147.64 211.57 146.76 208 146.16C204.42 145.56 200.71 144.83 199.75 144.54C198.79 144.24 198 144.45 198 145C198 145.55 198.79 146.18 199.75 146.41C200.71 146.63 202.74 147.08 204.25 147.41C205.76 147.73 207 148.67 207 149.5C207 150.57 206.28 150.86 204.5 150.5C203.12 150.22 200.87 149.78 199.5 149.5C197.72 149.14 197 149.43 197 150.5C197 151.38 197.92 152.01 199.25 152.02C200.49 152.02 202.17 152.45 203 152.96C203.82 153.47 204.27 154.16 204 154.5C203.72 154.84 201.7 154.85 199.5 154.52C197.3 154.19 194.82 153.51 194 153.01C192.67 152.22 192.7 151.21 194.23 144.31Z" fill="#FCFDFC"/>
<path d="M205.99 142.75C202.14 142.06 198.92 141 198.83 140.38C198.73 139.59 201.14 139.7 207.09 140.75C211.72 141.57 215.95 142.64 216.5 143.13C217.13 143.7 216.66 144.03 215.25 144.02C214.01 144.01 209.85 143.44 205.99 142.75Z" fill="#698C6E"/>
<path d="M157.75 127.67C157.06 127.49 156.36 125.92 156.18 124.17C155.95 121.82 156.27 121 157.43 121C158.56 121 159 121.99 159 124.5C159 126.81 158.57 127.89 157.75 127.67Z" fill="#698C6E"/>
<path d="M209.5 113C209.22 112.45 209.46 111.1 210.03 110C210.59 108.9 211.38 108.01 211.78 108.03C212.18 108.04 213.29 108.71 214.25 109.53C215.77 110.81 215.81 111.2 214.57 112.5C213.79 113.33 212.44 114 211.57 114C210.71 114 209.77 113.55 209.5 113Z" fill="#698C6E"/>
<path d="M182.75 112.05C180.44 112.01 180.02 111.59 180.12 109.42C180.18 108 180.68 106.98 181.23 107.17C181.78 107.35 182.96 108.53 183.86 109.8C185.46 112.03 185.43 112.09 182.75 112.05Z" fill="#698C6E"/>
<path d="M186.5 109.54C184.77 108.24 184.71 107.9 186 107.03C186.82 106.48 188.06 106.02 188.75 106.02C189.44 106.01 190 107.12 190 108.5C190 109.87 189.66 111.01 189.25 111.02C188.84 111.03 187.6 110.36 186.5 109.54Z" fill="#698C6E"/>
<path d="M191.8 114.58C191.64 108 191.92 106.06 193.05 105.66C193.85 105.38 197.76 105.12 209 105L209.25 109.25C209.49 113.41 209.59 113.51 217.5 114.5V120.49C217.5 125.42 217.19 126.52 215.75 126.74C214.74 126.89 214 126.36 214 125.5C214 124.25 212.35 124.04 204.25 124.23C198.89 124.35 193.94 124.13 193.25 123.73C192.43 123.25 191.93 120.08 191.8 114.58Z" fill="#95C7B8"/>
<path d="M200.5 116C198.03 116 196 115.55 196 115C196 114.45 198.03 114 200.5 114C202.97 114 205 114.45 205 115C205 115.55 202.97 116 200.5 116Z" fill="#293A25"/>
<path d="M193.77 102.44C193.64 102.13 195.06 100.11 196.92 97.94C198.78 95.77 200.66 94 201.1 94C201.54 94 201.69 95.46 201.44 97.25C201.18 99.04 200.98 101.06 200.99 101.75C201 102.51 199.64 103 197.5 103C195.58 103 193.9 102.75 193.77 102.44Z" fill="#698C6E"/>
<path d="M203.88 97.68C203.85 96.14 204.25 94.06 204.78 93.08C205.58 91.59 206.67 91.37 211.12 91.77C214.11 92.03 217.28 92.97 218.25 93.87C219.65 95.18 219.75 95.76 218.75 96.86C217.85 97.85 216.11 98.05 212.5 97.59C208.48 97.09 207.15 97.31 205.72 98.73C204.01 100.42 203.93 100.38 203.88 97.68Z" fill="#F0D564"/>
<path d="M222.09 70.79C227.8 64.47 229.8 63.01 237.09 59.83C241.72 57.8 246.29 56.12 247.25 56.08C248.21 56.03 249 56.23 249 56.5C249 56.78 245.47 60.71 241.16 65.25C236.85 69.79 231.46 75.53 229.2 78C226.93 80.47 225.06 83.06 225.04 83.75C225.02 84.44 225.56 84.98 226.25 84.96C227.25 84.92 227.25 85.22 226.25 86.46C225.55 87.33 224.24 87.75 223.25 87.42C222.26 87.09 220.85 87.54 220 88.46C219.07 89.47 216.98 90.07 214.5 90.03C212.3 90 209.49 89.75 208.25 89.49C207.01 89.22 206 88.33 206 87.5C206 86.67 205.55 86 205 86C204.45 86 200.74 89.65 196.75 94.11C192.76 98.57 188.26 102.84 186.75 103.61C185.24 104.37 183.21 104.95 182.25 104.88C181.29 104.82 180.05 104.86 179.5 104.96C178.95 105.07 175.35 105.1 171.5 105.04C167.65 104.98 163.71 105.17 162.75 105.47C161.46 105.86 161 107.06 161 110C161 112.667 160.47 114.25 159.41 114.75C158.54 115.16 157.92 115.95 158.05 116.5C158.17 117.05 157.54 117.95 156.64 118.5C155.51 119.19 154.39 119.12 153 118.25C151.9 117.56 150.1 117 149 117C147.9 117 146.78 117.45 146.5 118C146.22 118.55 146.56 119.15 147.25 119.34C147.94 119.53 146.7 120.61 144.5 121.74C142.3 122.87 139.49 125.2 138.25 126.9C137 128.62 133.55 131.11 125 135L125.5 139C125.78 141.2 125.78 143 125.5 143C125.22 143 124.46 141.76 122.61 137.5L122.31 140.25C122.09 142.22 121.36 143.09 119.75 143.32C118.14 143.56 117.92 143.81 119 144.23C119.82 144.55 121.29 145.08 122.25 145.4C123.69 145.89 123.78 146.27 122.75 147.55C122.06 148.4 120.56 148.96 119.41 148.8C118.27 148.63 116.58 147.94 115.66 147.25C114.75 146.56 113.44 146.34 112.75 146.75C112.06 147.16 110.82 147.55 110 147.6C109.17 147.66 106.81 147.77 104.75 147.85C101.56 147.98 101.04 148.32 101.25 150.1C101.46 151.85 100.9 152.26 98 152.48C96.07 152.63 93.37 152.42 92 152.02C89.53 151.3 89.55 151.26 93.27 149.39C95.35 148.35 97.03 147.16 97.02 146.75C97.01 146.34 96.55 146 96 146C95.45 146 93.88 146.56 92.51 147.25C91.14 147.94 89.68 148.18 89.26 147.79C88.84 147.4 96.41 138.62 123.67 109.5L135.08 104.59C141.36 101.89 155.72 95.65 167 90.74C178.28 85.83 192 79.78 197.5 77.31C203 74.84 209.86 71.96 212.75 70.91C215.64 69.86 218.34 69.23 218.75 69.51C219.16 69.79 218.27 71.25 216.77 72.76C215.27 74.27 214.03 76.06 214.02 76.75C214.01 77.44 214.34 78.02 214.75 78.04C215.16 78.07 218.47 74.81 222.09 70.79Z" fill="#698C6E"/>
<path d="M120.79 129.87C120.63 128.77 122.16 127.59 125.53 126.21C128.26 125.08 130.95 124.13 131.5 124.1C132.05 124.06 133.18 124.43 134 124.93C134.82 125.42 135.22 126.43 134.88 127.16C134.54 127.9 132.51 129.12 130.38 129.87C128.25 130.63 125.68 131.98 124.69 132.87C123.09 134.31 122.76 134.32 121.95 133C121.45 132.18 120.92 130.77 120.79 129.87Z" fill="#F0D564"/>
<path d="M119.74 92C122.81 90.63 151.68 77.95 183.91 63.83C218.6 48.63 243.83 38.13 245.75 38.08C247.54 38.04 250.24 38.7 251.75 39.56C253.26 40.42 255.51 42.89 256.75 45.06C257.99 47.23 259 49.45 259 50C259 50.55 254.84 55.37 249.75 60.72C244.66 66.07 237.35 73.73 233.5 77.75C229.65 81.77 226.16 85.04 225.75 85.03C225.34 85.01 225.02 84.44 225.04 83.75C225.06 83.06 226.93 80.47 229.2 78C231.46 75.53 236.96 69.71 241.41 65.07C247.02 59.23 249.04 56.52 248 56.22C247.18 55.99 242.49 57.53 237.59 59.65C229.7 63.06 227.92 64.34 222.09 70.79C218.46 74.81 215.16 78.07 214.75 78.04C214.34 78.02 214.01 77.44 214.02 76.75C214.03 76.06 215.27 74.27 216.77 72.76C218.27 71.25 219.16 69.79 218.75 69.51C218.34 69.23 215.64 69.86 212.75 70.91C209.86 71.96 203 74.84 197.5 77.31C192 79.78 178.28 85.83 167 90.74C155.72 95.65 141.36 101.89 123.67 109.5L106.08 128.29C96.41 138.62 88.84 147.4 89.26 147.79C89.68 148.18 91.14 147.94 92.51 147.25C93.88 146.56 95.45 146 96 146C96.55 146 97.01 146.34 97.02 146.75C97.03 147.16 95.35 148.38 93.27 149.45C89.96 151.16 89.77 151.43 91.75 151.7C92.99 151.86 94 152.45 94 153C94 153.55 92.19 154.56 89.98 155.25C87.76 155.94 85.96 157.06 85.98 157.75C85.99 158.44 87.36 162.04 89.02 165.75C90.68 169.46 93.26 173.49 94.77 174.71C96.27 175.92 97.12 177.27 96.66 177.71C96.19 178.14 91.47 176.19 86.16 173.37C80.75 170.5 76.39 167.53 76.25 166.62C76.1 165.63 77.36 164.32 79.52 163.25C82.48 161.78 83.04 160.98 83.02 158.25C83.01 156.04 82.52 155 81.5 155C80.67 155 77.25 158.26 67.77 169.5L70.13 171.23C71.44 172.18 72.72 172.95 73 172.95C73.28 172.94 77.89 175.43 83.25 178.47C88.61 181.51 93.34 183.99 93.75 183.97C94.16 183.96 95.3 183.17 96.28 182.22C97.76 180.79 98.06 180.76 98.02 182C97.99 182.82 96.18 186.76 93.99 190.75C91.79 194.74 89.78 198 89.5 198C89.22 198 85.63 195.97 81.5 193.5C77.38 191.03 73.78 189.11 73.52 189.25C73.26 189.39 73.93 208.96 75.02 232.75C76.11 256.54 77.4 277.01 77.89 278.25C78.39 279.49 79.85 281.45 81.14 282.61C82.44 283.78 85.53 285.91 88 287.34C90.47 288.78 92.84 289.97 93.25 289.98C93.66 289.99 93.73 285.61 93.41 280.25C92.85 271.12 92.95 270.37 94.98 268.5C97.02 266.62 97.5 266.58 102.83 267.87C105.95 268.62 110.97 269.57 114 269.98C117.03 270.39 121.3 271.39 127.5 273.71L127.46 280.11C127.43 283.62 127.05 289.87 125.79 301.5L132.39 305.25C136.56 307.61 139.01 309.65 139.02 310.75C139.03 311.71 138.46 313.06 137.77 313.73C137.07 314.41 136.72 315.16 137 315.39C137.28 315.62 142.45 318.55 148.5 321.91C158.4 327.4 160.08 328.01 165.25 328.01C170.53 328 172.47 327.25 188.75 318.89C198.51 313.88 210.55 307.64 215.5 305.02C220.45 302.4 230.8 296.99 238.5 293C246.2 289.01 256.66 283.55 261.75 280.87C266.84 278.19 271.4 275.21 271.89 274.25C272.38 273.29 274.96 271.52 277.64 270.33C280.31 269.13 283.29 267.9 284.25 267.58C285.21 267.26 286.68 265.43 287.5 263.5C288.32 261.57 289 257.19 289.02 247.5L282.26 248.22C277.54 248.72 274.94 248.57 273.64 247.72C272.02 246.66 271.86 245.63 272.39 239.75C272.73 236.04 273.45 233 274 233C274.55 233 275 233.68 275 234.5C275 235.32 275.45 235.78 276 235.5C276.55 235.22 277 233.43 277 231.5C277 229.57 277.45 227.78 278 227.5C278.55 227.22 279.22 227.11 279.5 227.25C279.77 227.39 279.32 230.65 278.48 234.5C277.65 238.35 276.75 242.51 276 246L288.25 245.43C294.99 245.11 301.18 244.68 302 244.45C302.84 244.23 304.05 241.83 304.75 239.03C305.44 236.26 306.45 234 307 234C307.59 234 307.76 235.53 307.42 237.75C307.1 239.81 306.31 242.62 305.66 244C304.68 246.09 303.67 246.55 299.49 246.82C296.75 247 293.92 247.67 293.21 248.32C292.42 249.04 291.93 251.77 291.96 255.25C291.98 258.41 291.31 262.69 290.48 264.75C289.64 266.81 288.96 268.61 288.98 268.75C288.99 268.89 291.36 267.83 294.25 266.4C298.08 264.5 300.38 263.96 302.75 264.4C305.25 264.86 307.61 266.89 313 273.25C316.84 277.79 319.99 282.29 320 283.25C320 284.49 316.49 286.76 308 291C301.4 294.3 295.1 297 294 297C292.9 297 288.33 293.96 283.85 290.25C279.36 286.54 274.86 282.49 272 279L261.75 284.38C256.11 287.34 245.43 292.92 238 296.78C230.57 300.63 213.14 309.69 199.25 316.9C185.36 324.1 172.09 330.48 169.75 331.06C166.79 331.8 164.13 331.8 161 331.08C158.53 330.51 151.66 327.33 145.75 324.02C139.84 320.71 134.66 318 134.25 318.01C133.84 318.01 130.92 320.6 127.78 323.76C124.63 326.92 121.7 329.15 121.28 328.72C120.85 328.29 123.98 324.47 128.24 320.22C132.5 315.97 135.99 311.94 135.99 311.25C136 310.56 133.64 308.66 130.75 307.03C127.57 305.23 124.02 304.05 121.75 304.03C119.69 304.01 117.78 303.55 117.5 303C117.22 302.45 116.21 302.01 115.25 302.03C114.29 302.04 112.7 302.83 111.73 303.78C110.06 305.41 109.9 305.41 108.73 303.74C108.05 302.77 100.97 298.24 93 293.68C80.88 286.74 78.14 284.73 76.29 281.44C74.32 277.93 73.97 275.2 73.05 256.5C72.49 244.95 71.55 224.7 69.9 187.5L66.36 184.5C63.44 182.02 62.72 180.63 62.24 176.5C61.88 173.47 60.54 169.83 58.82 167.25C57.07 164.61 56 161.67 56 159.5C56 156.28 58.37 153.5 85.09 125.25C110.5 98.39 114.88 94.18 119.74 92Z" fill="#293A25"/>
<path d="M111.76 274.07C111.63 273.56 112.41 272.95 113.51 272.7C114.6 272.46 116.4 272.46 117.5 272.71C118.6 272.97 120.93 273.68 122.68 274.31C125.47 275.3 125.83 275.85 125.68 278.89C125.58 280.79 125.05 282.51 124.5 282.71C123.95 282.91 123.24 282.26 122.93 281.28C122.62 280.3 121.05 279.13 119.43 278.68C117.82 278.23 115.49 277.22 114.25 276.43C113.01 275.64 111.89 274.58 111.76 274.07Z" fill="#F0D564"/>
<path d="M96.79 288.76C96.4 286.42 95.78 281.46 95.41 277.75C95.04 274.02 95.13 270.99 95.62 270.98C96.1 270.98 99.2 271.9 102.5 273.03C105.8 274.16 109.4 275.95 110.5 277C111.6 278.05 114.3 279.54 120.5 281.69L121.31 290.6C121.76 295.49 121.87 300.06 121.56 300.75C121.14 301.69 119.33 301.37 114.25 299.46C110.54 298.07 105.25 296.05 102.5 294.97C97.83 293.15 97.45 292.74 96.79 288.76Z" fill="#F0D564"/>
<path d="M274.52 277C273.97 274.81 274.43 274.23 278.19 272.31C280.56 271.11 282.95 270.09 283.5 270.05C284.05 270 285.4 270.62 286.5 271.42C288.41 272.8 288.28 272.96 283.75 274.93C279.35 276.85 279.04 277.22 279.5 280C279.77 281.65 279.66 283.01 279.25 283.03C278.84 283.05 277.75 282.26 276.83 281.28C275.91 280.3 274.87 278.38 274.52 277Z" fill="#F0D564"/>
<path d="M106.88 273.25C106.81 272.84 105.57 271.97 104.13 271.33C102.68 270.69 102.18 270.11 103 270.06C103.83 270 106.08 270.6 108 271.4C109.93 272.2 112.06 273.79 112.75 274.93C113.44 276.07 115.88 277.56 118.17 278.25C120.53 278.96 122.59 280.28 122.92 281.3C123.29 282.43 124.05 282.85 125 282.44C126.11 281.96 126.31 282.21 125.75 283.4C125.34 284.28 125 285.9 125 287C125 288.1 124.55 289 124 289C123.45 289 123 288.33 123 287.5C123 286.68 122.55 286 122 286C121.45 286 120.89 285.03 120.75 283.85C120.57 282.33 119.31 281.27 116.5 280.28C114.3 279.5 111.26 277.77 109.75 276.43C108.24 275.09 106.94 273.66 106.88 273.25Z" fill="#698C6E"/>
<path d="M281 278.57C281.27 278.35 286.23 275.93 292 273.18C297.77 270.42 303.18 268.12 304 268.05C304.82 267.99 308.28 271.21 311.68 275.22C315.07 279.22 317.66 282.84 317.43 283.25C317.19 283.66 311.94 286.53 294.5 295.24L291.14 291.37C289.3 289.24 286.15 285.58 284.14 283.23C282.14 280.87 280.73 278.78 281 278.57Z" fill="#F0D564"/>
<path d="M66.71 180.68C65.72 179.48 64.93 177.04 64.96 175.25C64.98 173.46 65.23 172 65.5 172C65.78 172 67.01 172.5 68.25 173.11C69.49 173.73 75.39 176.99 81.38 180.36C87.36 183.74 92.42 186.84 92.63 187.25C92.83 187.66 92.57 188.79 92.03 189.75C91.5 190.71 90.71 192.11 90.28 192.86C89.67 193.91 87.16 192.95 79 188.54C73.23 185.41 67.69 181.88 66.71 180.68Z" fill="#7CCF95"/>
<path d="M69.8 147.78C70.9 147.96 79.45 139.87 93.94 124.97L116.39 101.88L122.01 107.5L119.25 110.48C117.74 112.11 107.46 122.91 96.42 134.48C85.38 146.04 73.56 158.43 64.01 168.5L61.5 165.75C59.92 164.01 58.99 161.8 58.99 159.75C58.98 157.21 59.96 155.52 63.53 152C66.04 149.53 68.86 147.62 69.8 147.78Z" fill="#7CCF95"/>
<path d="M77.28 138C81.81 133.32 92.26 122.34 100.51 113.59C112.52 100.85 115.55 98.12 115.75 99.84C115.94 101.46 110.39 107.8 93.75 125.01C81.51 137.67 70.94 148.02 70.25 148.01C69.56 148.01 69.01 147.66 69.02 147.25C69.03 146.84 72.75 142.68 77.28 138Z" fill="#9FF5B7"/>
<path d="M185 66.77C208.92 56.32 231.87 46.26 236 44.41C240.12 42.56 244.96 41.03 246.75 41.02C249.26 41 250.57 41.74 252.47 44.25C253.83 46.04 254.96 47.84 254.97 48.25C254.99 48.66 252.41 50.17 249.25 51.6C246.09 53.03 236.3 57.36 227.5 61.22C218.7 65.07 206.55 70.39 200.5 73.04C194.45 75.68 181.17 81.49 171 85.95C160.82 90.41 146.04 96.86 123.78 106.5L120.89 103.25C119.24 101.39 118.11 99.08 118.25 97.85C118.45 96.13 120.82 94.7 130 90.73C136.32 88 161.07 77.22 185 66.77Z" fill="#9FF5B7"/>
</g>
<defs>
<filter id="filter0_d_2_121" x="40.9799" y="27.0298" width="293.807" height="327.726" filterUnits="userSpaceOnUse" color-interpolation-filters="sRGB">
<feFlood flood-opacity="0" result="BackgroundImageFix"/>
<feColorMatrix in="SourceAlpha" type="matrix" values="0 0 0 0 0 0 0 0 0 0 0 0 0 0 0 0 0 0 127 0" result="hardAlpha"/>
<feOffset dy="4"/>
<feGaussianBlur stdDeviation="2"/>
<feComposite in2="hardAlpha" operator="out"/>
<feColorMatrix type="matrix" values="0 0 0 0 0 0 0 0 0 0 0 0 0 0 0 0 0 0 0.25 0"/>
<feBlend mode="normal" in2="BackgroundImageFix" result="effect1_dropShadow_2_121"/>
<feBlend mode="normal" in="SourceGraphic" in2="effect1_dropShadow_2_121" result="shape"/>
</filter>
</defs>
</svg>
