<svg width="810" height="198" viewBox="0 0 810 198" fill="none" xmlns="http://www.w3.org/2000/svg">
<path d="M400.946 46.9223V141.692H377.861V84.8573L356.666 141.692H338.036L316.706 84.7224V141.692H293.621V46.9223H320.891L347.486 112.532L373.811 46.9223H400.946ZM412.957 103.892C412.957 96.1523 414.397 89.3574 417.277 83.5074C420.247 77.6574 424.252 73.1574 429.292 70.0074C434.332 66.8574 439.957 65.2823 446.167 65.2823C451.477 65.2823 456.112 66.3624 460.072 68.5224C464.122 70.6824 467.227 73.5174 469.387 77.0274V66.3624H492.472V141.692H469.387V131.027C467.137 134.537 463.987 137.372 459.937 139.532C455.977 141.692 451.342 142.772 446.032 142.772C439.912 142.772 434.332 141.197 429.292 138.047C424.252 134.807 420.247 130.262 417.277 124.412C414.397 118.472 412.957 111.632 412.957 103.892ZM469.387 104.027C469.387 98.2674 467.767 93.7223 464.527 90.3923C461.377 87.0623 457.507 85.3974 452.917 85.3974C448.327 85.3974 444.412 87.0623 441.172 90.3923C438.022 93.6323 436.447 98.1323 436.447 103.892C436.447 109.652 438.022 114.242 441.172 117.662C444.412 120.992 448.327 122.657 452.917 122.657C457.507 122.657 461.377 120.992 464.527 117.662C467.767 114.332 469.387 109.787 469.387 104.027ZM537.793 65.2823C543.103 65.2823 547.738 66.3624 551.698 68.5224C555.748 70.6824 558.853 73.5174 561.013 77.0274V66.3624H584.098V141.557C584.098 148.487 582.703 154.742 579.913 160.322C577.213 165.992 573.028 170.492 567.358 173.822C561.778 177.152 554.803 178.817 546.433 178.817C535.273 178.817 526.228 176.162 519.298 170.852C512.368 165.632 508.408 158.522 507.418 149.522H530.233C530.953 152.402 532.663 154.652 535.363 156.272C538.063 157.982 541.393 158.837 545.353 158.837C550.123 158.837 553.903 157.442 556.693 154.652C559.573 151.952 561.013 147.587 561.013 141.557V130.892C558.763 134.402 555.658 137.282 551.698 139.532C547.738 141.692 543.103 142.772 537.793 142.772C531.583 142.772 525.958 141.197 520.918 138.047C515.878 134.807 511.873 130.262 508.903 124.412C506.023 118.472 504.583 111.632 504.583 103.892C504.583 96.1523 506.023 89.3574 508.903 83.5074C511.873 77.6574 515.878 73.1574 520.918 70.0074C525.958 66.8574 531.583 65.2823 537.793 65.2823ZM561.013 104.027C561.013 98.2674 559.393 93.7223 556.153 90.3923C553.003 87.0623 549.133 85.3974 544.543 85.3974C539.953 85.3974 536.038 87.0623 532.798 90.3923C529.648 93.6323 528.073 98.1323 528.073 103.892C528.073 109.652 529.648 114.242 532.798 117.662C536.038 120.992 539.953 122.657 544.543 122.657C549.133 122.657 553.003 120.992 556.153 117.662C559.393 114.332 561.013 109.787 561.013 104.027ZM623.884 77.0274C626.134 73.5174 629.239 70.6824 633.199 68.5224C637.159 66.3624 641.794 65.2823 647.104 65.2823C653.314 65.2823 658.939 66.8574 663.979 70.0074C669.019 73.1574 672.979 77.6574 675.859 83.5074C678.829 89.3574 680.314 96.1523 680.314 103.892C680.314 111.632 678.829 118.472 675.859 124.412C672.979 130.262 669.019 134.807 663.979 138.047C658.939 141.197 653.314 142.772 647.104 142.772C641.884 142.772 637.249 141.692 633.199 139.532C629.239 137.372 626.134 134.582 623.884 131.162V177.602H600.799V66.3624H623.884V77.0274ZM656.824 103.892C656.824 98.1323 655.204 93.6323 651.964 90.3923C648.814 87.0623 644.899 85.3974 640.219 85.3974C635.629 85.3974 631.714 87.0623 628.474 90.3923C625.324 93.7223 623.749 98.2674 623.749 104.027C623.749 109.787 625.324 114.332 628.474 117.662C631.714 120.992 635.629 122.657 640.219 122.657C644.809 122.657 648.724 120.992 651.964 117.662C655.204 114.242 656.824 109.652 656.824 103.892ZM687.835 103.892C687.835 96.1523 689.275 89.3574 692.155 83.5074C695.125 77.6574 699.13 73.1574 704.17 70.0074C709.21 66.8574 714.835 65.2823 721.045 65.2823C726.355 65.2823 730.99 66.3624 734.95 68.5224C739 70.6824 742.105 73.5174 744.265 77.0274V66.3624H767.351V141.692H744.265V131.027C742.015 134.537 738.865 137.372 734.815 139.532C730.855 141.692 726.22 142.772 720.91 142.772C714.79 142.772 709.21 141.197 704.17 138.047C699.13 134.807 695.125 130.262 692.155 124.412C689.275 118.472 687.835 111.632 687.835 103.892ZM744.265 104.027C744.265 98.2674 742.645 93.7223 739.405 90.3923C736.255 87.0623 732.385 85.3974 727.795 85.3974C723.205 85.3974 719.29 87.0623 716.05 90.3923C712.9 93.6323 711.325 98.1323 711.325 103.892C711.325 109.652 712.9 114.242 716.05 117.662C719.29 120.992 723.205 122.657 727.795 122.657C732.385 122.657 736.255 120.992 739.405 117.662C742.645 114.332 744.265 109.787 744.265 104.027ZM795.661 58.5323C791.611 58.5323 788.281 57.3624 785.671 55.0224C783.151 52.5924 781.891 49.6224 781.891 46.1124C781.891 42.5124 783.151 39.5423 785.671 37.2023C788.281 34.7723 791.611 33.5574 795.661 33.5574C799.621 33.5574 802.861 34.7723 805.381 37.2023C807.991 39.5423 809.291 42.5124 809.291 46.1124C809.291 49.6224 807.991 52.5924 805.381 55.0224C802.861 57.3624 799.621 58.5323 795.661 58.5323ZM807.131 66.3624V141.692H784.051V66.3624H807.131Z" fill="#080808"/>
<path opacity="0.937255" d="M172.244 0.0889483C184.924 -0.536752 196.972 2.08435 202.743 9.67735L205.357 14.0364C205.357 14.0364 210.485 14.2824 214.071 14.6174C217.657 14.9524 220.07 15.7354 224.527 16.9414C228.985 18.1484 233.241 19.8473 233.241 19.8473C236.339 20.8163 238.759 22.4624 240.502 24.7874C240.502 24.7874 238.659 26.1953 236.146 26.8213C233.632 27.4473 226.37 28.0284 222.784 28.5644C219.198 29.1014 208.842 32.0513 208.842 32.0513C204.428 34.4143 200.845 37.6103 198.095 41.6403C196.856 42.9183 197.134 47.6974 197.615 50.6474C198.642 56.9524 201.581 60.5274 203.904 66.6284C209.734 81.9384 200.987 102.686 194.61 116.025C188.917 126.02 181.849 134.641 173.406 141.885C164.964 149.13 166.287 147.38 161.207 150.021C156.235 152.606 147.846 155.252 147.846 155.252C147.846 155.252 144.921 156.287 144.07 157.867C143.521 158.885 143.489 160.773 143.489 160.773C143.489 160.773 143.489 177.715 143.489 180.531C143.489 183.348 144.371 184.545 145.232 186.052C145.232 186.052 150.944 187.214 152.493 186.052C154.042 184.889 156.366 184.502 159.464 184.889C162.562 185.277 166.11 186.318 169.34 188.957C170.458 189.871 171.954 191.573 171.954 191.573L172.535 193.897L171.082 193.025C171.082 193.025 169.82 192.154 168.178 191.282C166.535 190.41 162.221 188.957 159.464 188.957C156.85 188.957 152.784 190.41 152.784 190.41C152.784 190.41 155.482 191.728 156.269 193.316C156.684 194.154 156.85 195.641 156.85 195.641L153.655 193.025C153.655 193.025 151.565 192.198 150.169 191.863C148.062 191.358 144.651 191.282 144.651 191.282L146.394 196.222L144.941 195.35L139.132 190.701H135.066L128.385 191.863C127.572 189.848 130.126 189.248 130.126 189.248L136.227 186.633L138.261 184.599V166.003C138.261 166.003 138.07 163.432 137.679 161.354C137.289 159.275 135.646 158.157 135.646 158.157C129.48 159.7 117.738 157.867 114.734 156.995C113.643 157.692 113.239 158.434 112.7 159.61C112.032 161.069 112.119 163.678 112.119 163.678C112.119 163.678 111.831 181.984 112.119 184.018C112.408 186.052 114.734 186.052 114.734 186.052C114.734 186.052 119.137 185.699 121.704 186.633C123.569 187.311 125.188 188.578 126.061 189.248C126.935 189.918 126.935 190.79 126.642 190.991C126.35 191.193 125.479 190.991 124.609 190.701C123.739 190.41 120.541 188.869 118.219 188.957C115.897 189.046 112.7 190.991 112.7 190.991L113.281 197.384H112.7C112.7 197.384 110.665 192.065 110.086 191.863C109.507 191.662 104.275 190.612 103.696 190.701C103.117 190.79 100.21 193.025 100.21 193.025C100.21 193.025 102.246 189.918 101.953 189.538C101.661 189.159 99.4568 189.302 97.8868 189.538C95.4698 189.903 92.0768 191.863 92.0768 191.863L92.3678 190.991C92.3678 190.991 93.9819 188.325 95.5629 187.214C97.6789 185.727 101.953 185.47 101.953 185.47H106.891V172.395V159.029C106.194 156.239 104.742 154.206 102.534 152.927C102.534 152.927 97.5408 151.252 94.4008 150.021C86.1808 146.802 82.7858 141.535 74.0688 140.142C65.4828 138.77 61.3549 142.007 51.9939 143.048C42.6329 144.088 32.4428 143.926 23.0488 143.048C14.3398 142.234 -0.188155 137.281 0.00184514 135.493C0.191845 133.705 10.7388 129.571 12.4918 128.519C18.3278 125.017 21.1079 122.298 26.4339 118.059C41.2549 106.263 61.8698 84.9344 61.8698 84.9344L78.7158 70.9874L91.4968 61.6893C96.5308 58.0093 102.147 54.9094 108.343 52.3914L115.605 46.8703C122.653 35.1313 131.077 24.7683 140.875 15.7793C148.969 8.18635 159.565 0.714348 172.244 0.0889483ZM181.829 9.96835C181.829 9.96835 180.567 9.92335 178.925 10.5494C177.054 11.2624 174.278 12.4674 174.278 14.6174C174.278 14.6174 176.791 19.2664 178.344 20.4284C179.897 21.5914 180.939 22.7273 182.991 23.3343C185.167 23.9783 186.622 23.9663 188.801 23.3343C191.157 22.6513 193.548 20.4283 194.029 19.8473C194.509 19.2663 194.029 16.9414 194.029 16.9414C194.029 16.9414 194.219 16.3164 192.286 14.6174C190.353 12.9184 186.477 9.96835 181.829 9.96835ZM202.162 19.8473C198.777 19.8473 198.642 19.7454 199.257 21.5914C199.257 21.5914 217.165 22.7533 219.589 22.7533C222.013 22.7533 229.754 23.3343 229.754 23.3343C229.754 23.3343 217.657 21.0544 214.361 20.4284C211.065 19.8034 202.162 19.8473 202.162 19.8473ZM151.622 29.1454C146.674 28.8704 142.872 31.0004 138.842 33.7944C134.752 36.6294 133.199 39.1773 130.128 43.0933C125.421 49.0953 125.282 54.2113 120.252 59.9463C116.86 63.8133 114.573 65.6873 110.376 68.6633C101.308 75.0943 89.4638 77.6703 80.7488 84.3533C72.0358 91.0363 42.4088 115.153 42.4088 115.153L25.5618 126.776C25.5618 126.776 31.8688 128.575 36.0188 129.1C41.6458 129.813 44.9658 130.141 50.5418 129.1C54.0548 128.445 57.2518 127.269 60.4168 125.614C65.4438 122.985 66.9408 121.133 72.0358 118.64C75.0658 117.158 76.8318 116.224 80.1688 115.734C82.6378 115.372 84.0879 115.386 86.5589 115.734C88.4109 115.996 91.2058 116.897 91.2058 116.897C91.2058 116.897 94.7728 116.73 97.0148 116.316C104.498 114.932 114.443 105.855 114.443 105.855C122.576 100.818 128.094 97.6223 135.066 91.0363C142.037 84.4503 145.813 83.2623 150.46 80.8663C155.107 78.4703 157.624 72.3434 160.336 66.9194C162.272 62.2704 163.434 56.8464 163.821 50.6474L165.564 51.8103L169.63 58.2023C169.63 58.2023 171.152 62.3773 171.373 65.1763C171.588 67.9003 171.438 69.4944 170.792 72.1494C169.289 78.3284 161.497 85.5154 161.497 85.5154C161.497 85.5154 157.865 94.9553 154.917 100.379C150.824 107.911 143.331 113.381 136.518 118.059C131.224 121.694 128.255 123.78 122.576 126.776C117.095 129.667 113.876 131.051 108.053 133.168C100.76 135.821 88.8819 138.399 88.8819 138.399C98.5639 143.823 109.989 147.697 123.157 150.021C130.863 150.626 137.503 150.447 144.651 147.697C154.72 143.823 163.434 138.399 170.792 131.425C176.214 126.001 180.861 119.996 184.734 113.41C188.607 106.824 189.189 105.496 191.124 100.044C193.076 94.5464 194.119 91.3304 194.61 85.5154C195.03 80.5354 195.191 78.1543 194.029 72.7303C192.867 67.3073 190.931 62.6584 188.219 58.7834C184.734 54.1344 180.474 50.2603 175.439 47.1613C171.567 44.4483 168.662 41.1564 166.726 37.2814C163.627 32.2454 158.593 29.5334 151.622 29.1454Z" fill="#080808"/>
</svg>
